<svg width="10" height="5" viewBox="0 0 10 5" fill="none" xmlns="http://www.w3.org/2000/svg">
<mask id="path-1-inside-1_199_3510" fill="white">
<path d="M5.3569 4.86727L9.85238 0.783548C10.0492 0.604356 10.0492 0.314037 9.85238 0.134393C9.65555 -0.0447977 9.33586 -0.0447977 9.13903 0.134393L5.00025 3.8942L0.861466 0.134847C0.66464 -0.0443444 0.344943 -0.0443444 0.147619 0.134847C-0.0492068 0.314038 -0.0492068 0.604809 0.147619 0.784L4.64306 4.86773C4.83785 5.04417 5.16257 5.04417 5.3569 4.86727Z"/>
</mask>
<path d="M5.3569 4.86727L9.85238 0.783548C10.0492 0.604356 10.0492 0.314037 9.85238 0.134393C9.65555 -0.0447977 9.33586 -0.0447977 9.13903 0.134393L5.00025 3.8942L0.861466 0.134847C0.66464 -0.0443444 0.344943 -0.0443444 0.147619 0.134847C-0.0492068 0.314038 -0.0492068 0.604809 0.147619 0.784L4.64306 4.86773C4.83785 5.04417 5.16257 5.04417 5.3569 4.86727Z" fill="#8B8B8B"/>
<path d="M5.3569 4.86727L4.68451 4.12708L4.68376 4.12776L5.3569 4.86727ZM9.85238 0.783548L10.5248 1.52374L10.5256 1.523L9.85238 0.783548ZM9.85238 0.134393L10.5265 -0.604217L10.5256 -0.605063L9.85238 0.134393ZM9.13903 0.134393L9.81144 0.874576L9.81224 0.87385L9.13903 0.134393ZM5.00025 3.8942L4.32789 4.63443L5.00029 5.24519L5.67266 4.63439L5.00025 3.8942ZM0.861466 0.134847L0.188261 0.874303L0.189104 0.875069L0.861466 0.134847ZM0.147619 0.134847L-0.524655 -0.605457L-0.525586 -0.604609L0.147619 0.134847ZM0.147619 0.784L-0.525586 1.52346L-0.52478 1.52419L0.147619 0.784ZM4.64306 4.86773L3.97066 5.60792L3.97173 5.60889L4.64306 4.86773ZM6.0293 5.60747L10.5248 1.52374L9.17998 0.0433557L4.68451 4.12708L6.0293 5.60747ZM10.5256 1.523C11.1587 0.946625 11.1573 -0.0285133 10.5265 -0.604217L9.17825 0.873004C9.07257 0.776552 9 0.627471 9 0.45914C9 0.290729 9.07267 0.141051 9.17918 0.0440914L10.5256 1.523ZM10.5256 -0.605063C9.94718 -1.13165 9.04423 -1.13165 8.46583 -0.605063L9.81224 0.87385C9.71006 0.966876 9.5924 1 9.49571 1C9.39901 1 9.28136 0.966876 9.17918 0.87385L10.5256 -0.605063ZM8.46662 -0.605788L4.32784 3.15402L5.67266 4.63439L9.81144 0.874576L8.46662 -0.605788ZM5.67261 3.15398L1.53383 -0.605376L0.189104 0.875069L4.32789 4.63443L5.67261 3.15398ZM1.53467 -0.60461C0.955784 -1.13163 0.053489 -1.13047 -0.524654 -0.605456L0.819893 0.87515C0.718316 0.967392 0.601309 1.00045 0.504729 1.00045C0.408161 1.00045 0.290484 0.967367 0.188261 0.874303L1.53467 -0.60461ZM-0.525586 -0.604609C-1.15814 -0.0287304 -1.15814 0.947577 -0.525585 1.52346L0.820824 0.0445437C0.927583 0.141737 1 0.291413 1 0.459424C1 0.627434 0.927583 0.777109 0.820824 0.874303L-0.525586 -0.604609ZM-0.52478 1.52419L3.97066 5.60792L5.31545 4.12754L0.820018 0.0438113L-0.52478 1.52419ZM3.97173 5.60889C4.54718 6.13012 5.45379 6.13132 6.03004 5.60679L4.68376 4.12776C4.79182 4.0294 4.91095 4.00004 4.99971 4C5.08844 3.99996 5.20684 4.02916 5.31438 4.12657L3.97173 5.60889Z" fill="#8B8B8B" mask="url(#path-1-inside-1_199_3510)"/>
</svg>
