<svg width="101" height="21" viewBox="0 0 101 21" fill="none" xmlns="http://www.w3.org/2000/svg">
<path d="M23.5923 4.98217H21.1127C21.0111 4.97153 20.9086 4.98418 20.8123 5.0192C20.7161 5.05423 20.6285 5.11077 20.5559 5.18478C20.4833 5.2588 20.4273 5.34846 20.3921 5.44737C20.3569 5.54629 20.3433 5.652 20.3523 5.75698V14.0957C20.3456 14.1955 20.3589 14.2957 20.3913 14.39C20.4237 14.4843 20.4745 14.5707 20.5406 14.6438C20.6067 14.717 20.6867 14.7753 20.7755 14.8152C20.8644 14.8551 20.9603 14.8757 21.0571 14.8757C21.154 14.8757 21.2499 14.8551 21.3388 14.8152C21.4276 14.7753 21.5076 14.717 21.5737 14.6438C21.6398 14.5707 21.6906 14.4843 21.723 14.39C21.7554 14.2957 21.7687 14.1955 21.762 14.0957V11.1181H23.7235C25.6077 11.1181 26.6271 9.50245 26.6271 7.99106C26.6224 7.58672 26.5397 7.1874 26.384 6.81638C26.2283 6.44535 26.0027 6.11004 25.7202 5.82999C25.4377 5.54993 25.1041 5.33074 24.7388 5.18518C24.3735 5.03963 23.9837 4.97061 23.5923 4.98217ZM25.177 8.0397C25.177 8.71722 24.669 9.65533 23.7168 9.65533H21.762V6.44145H23.6865C23.888 6.4383 24.0879 6.47795 24.2739 6.55793C24.4599 6.63791 24.628 6.75651 24.7678 6.90639C24.9076 7.05626 25.016 7.23419 25.0864 7.42915C25.1568 7.62411 25.1876 7.83192 25.177 8.0397Z" fill="#808080"/>
<path d="M33.4099 13.3803H29.7627V5.70522C29.7627 5.51171 29.6883 5.32613 29.5558 5.18929C29.4233 5.05246 29.2435 4.97559 29.0562 4.97559C28.8688 4.97559 28.6891 5.05246 28.5566 5.18929C28.424 5.32613 28.3496 5.51171 28.3496 5.70522V13.8529C28.3496 14.4783 28.6625 14.8396 29.2076 14.8396H33.4099C33.5973 14.8396 33.777 14.7627 33.9095 14.6259C34.042 14.4891 34.1164 14.3035 34.1164 14.11C34.1164 13.9164 34.042 13.7309 33.9095 13.594C33.777 13.4572 33.5973 13.3803 33.4099 13.3803Z" fill="#808080"/>
<path d="M50.9693 12.5633C50.8781 12.5632 50.7878 12.5822 50.7039 12.6192C50.62 12.6563 50.5443 12.7105 50.4814 12.7787C49.9057 13.2919 49.1694 13.5721 48.4089 13.5674C46.4709 13.5674 45.4582 11.719 45.4582 9.89141C45.4582 8.15417 46.3767 6.31618 48.3988 6.31618C49.0717 6.31618 50.0238 6.56634 50.4949 7.05277C50.649 7.19703 50.8487 7.27852 51.0567 7.28208C51.1523 7.28081 51.2467 7.25963 51.3341 7.21979C51.4216 7.17996 51.5003 7.1223 51.5657 7.05028C51.631 6.97825 51.6816 6.89333 51.7144 6.80062C51.7472 6.70791 51.7616 6.60932 51.7566 6.51075C51.7548 6.38482 51.7254 6.26094 51.6706 6.14841C51.6159 6.03588 51.5371 5.93763 51.4403 5.86103C50.603 5.13569 49.542 4.74376 48.4492 4.75614C45.5019 4.75614 43.9609 7.38284 43.9609 9.96785C43.9609 12.4243 45.3438 15.0649 48.3752 15.0649C49.4784 15.0651 50.5479 14.6724 51.4033 13.9531C51.4918 13.869 51.5617 13.7662 51.6082 13.6516C51.6546 13.5371 51.6765 13.4135 51.6725 13.2894C51.6768 13.1929 51.6615 13.0965 51.6277 13.0064C51.5939 12.9162 51.5423 12.8344 51.4761 12.7661C51.4099 12.6977 51.3306 12.6444 51.2434 12.6095C51.1561 12.5746 51.0628 12.5588 50.9693 12.5633Z" fill="#808080"/>
<path d="M58.8061 13.3802H54.883V10.4652H58.1231C58.2172 10.4756 58.3124 10.4646 58.4019 10.4328C58.4914 10.4011 58.5731 10.3494 58.6411 10.2814C58.7092 10.2135 58.7619 10.1309 58.7957 10.0396C58.8294 9.94826 58.8433 9.85038 58.8363 9.75289C58.8438 9.65374 58.8305 9.55409 58.7974 9.46069C58.7643 9.36729 58.7122 9.28231 58.6446 9.2115C58.577 9.14068 58.4954 9.08568 58.4054 9.05021C58.3155 9.01474 58.2192 8.99962 58.1231 9.00588H54.883V6.45215H58.7085C58.8034 6.46219 58.8993 6.45051 58.9893 6.41794C59.0793 6.38537 59.1613 6.33272 59.2294 6.26373C59.2975 6.19473 59.3501 6.11109 59.3833 6.01875C59.4165 5.92641 59.4297 5.82764 59.4218 5.72946C59.4306 5.63059 59.4183 5.53093 59.3855 5.43758C59.3528 5.34423 59.3004 5.2595 59.2323 5.18946C59.1641 5.11942 59.0819 5.06579 58.9913 5.03241C58.9008 4.99902 58.8042 4.98671 58.7085 4.99635H54.2303C54.1247 4.99 54.0191 5.00763 53.9208 5.04799C53.8226 5.08836 53.7341 5.15048 53.6616 5.22998C53.5891 5.30948 53.5344 5.40442 53.5012 5.50813C53.4681 5.61184 53.4574 5.72178 53.4699 5.83022V14.0022C53.4699 14.5442 53.591 14.8395 54.2303 14.8395H58.8061C59.2973 14.8395 59.59 14.5685 59.59 14.1168C59.59 13.8979 59.516 13.3802 58.8061 13.3802Z" fill="#808080"/>
<path d="M65.6619 9.56122C65.4634 9.46393 65.2649 9.37012 65.0798 9.26589L64.7097 9.06784C63.8821 8.62311 63.1015 8.2027 63.1015 7.65721C63.1154 7.30723 63.2596 6.97631 63.5041 6.73353C63.7486 6.49075 64.0745 6.35488 64.4137 6.35428H64.4305C65.1019 6.35864 65.7528 6.59331 66.281 7.02138L66.3449 7.06307C66.5016 7.19123 66.6909 7.26968 66.89 7.28891C66.9841 7.28621 67.0768 7.26439 67.1627 7.22468C67.2487 7.18497 67.3262 7.12816 67.3909 7.0575C67.4556 6.98683 67.5061 6.9037 67.5397 6.81284C67.5732 6.72199 67.5891 6.6252 67.5864 6.528C67.5729 6.36967 67.5255 6.21643 67.4475 6.0794C67.3695 5.94237 67.263 5.82501 67.1356 5.73583C66.4005 5.172 65.5141 4.85758 64.5987 4.83594C62.8054 4.83594 61.5538 6.01726 61.5538 7.70585C61.5538 9.16513 62.9736 9.91561 64.269 10.6001C64.4709 10.7078 64.6795 10.8016 64.8881 10.8954C65.7662 11.2915 66.2709 11.5903 66.3045 12.3547C66.3483 13.3519 64.4709 14.1753 62.7482 13.0878C62.5774 12.9697 62.3783 12.9023 62.1729 12.8932C62.0827 12.8859 61.9921 12.8989 61.9072 12.9312C61.8224 12.9635 61.7453 13.0145 61.6813 13.0805C61.6174 13.1466 61.5681 13.2262 61.5367 13.3138C61.5054 13.4014 61.4929 13.495 61.5 13.5881C61.5038 13.7483 61.548 13.9046 61.6283 14.0417C61.7085 14.1788 61.822 14.2919 61.9575 14.3699C62.6348 14.8149 63.4225 15.0478 64.2252 15.0405C66.5569 15.0405 67.8421 14.0607 67.8421 12.2887C67.8421 10.6175 66.6814 10.0546 65.6619 9.56122Z" fill="#808080"/>
<path d="M76.0152 5.03757H69.9826C69.885 5.02622 69.7862 5.03707 69.6931 5.06935C69.6 5.10162 69.5149 5.15455 69.4437 5.22441C69.3725 5.29427 69.317 5.37938 69.2811 5.47374C69.2451 5.56811 69.2296 5.66946 69.2356 5.77068C69.2311 5.87104 69.2478 5.97122 69.2844 6.06431C69.321 6.15739 69.3767 6.24117 69.4477 6.30987C69.5187 6.37856 69.6033 6.43054 69.6957 6.46222C69.788 6.4939 69.8859 6.50453 69.9826 6.49337H72.2873V14.0955C72.2721 14.1994 72.28 14.3055 72.3103 14.4057C72.3406 14.506 72.3925 14.5979 72.4621 14.6745C72.5317 14.7511 72.6173 14.8103 72.7123 14.8479C72.8073 14.8854 72.9093 14.9002 73.0106 14.8912C73.1101 14.8964 73.2094 14.8787 73.3015 14.8395C73.3935 14.8003 73.476 14.7405 73.5429 14.6644C73.6099 14.5883 73.6596 14.4978 73.6886 14.3994C73.7176 14.301 73.725 14.1972 73.7105 14.0955V6.49337H76.0253C76.1204 6.50134 76.216 6.48834 76.3059 6.45523C76.3957 6.42211 76.4778 6.36964 76.5465 6.3013C76.6152 6.23296 76.6691 6.1503 76.7045 6.05882C76.7399 5.96733 76.7561 5.86912 76.752 5.77068C76.7578 5.67043 76.7425 5.57008 76.7071 5.47653C76.6718 5.38298 76.6172 5.29846 76.5472 5.22878C76.4772 5.1591 76.3933 5.10593 76.3015 5.07292C76.2096 5.03991 76.112 5.02785 76.0152 5.03757Z" fill="#808080"/>
<path d="M84.3343 13.8325L81.4879 5.79254C81.4295 5.57821 81.3049 5.38947 81.133 5.25503C80.9611 5.1206 80.7514 5.04785 80.5358 5.04785C80.3202 5.04785 80.1104 5.1206 79.9386 5.25503C79.7667 5.38947 79.642 5.57821 79.5836 5.79254L76.8314 13.8429C76.7939 13.9548 76.7735 14.072 76.7708 14.1903C76.7652 14.281 76.7779 14.372 76.8082 14.4573C76.8386 14.5426 76.8858 14.6205 76.9469 14.6859C77.008 14.7513 77.0817 14.8028 77.1632 14.8371C77.2447 14.8714 77.3322 14.8878 77.4202 14.8852C77.6026 14.8838 77.7796 14.8205 77.9237 14.7049C78.0678 14.5894 78.1711 14.4281 78.2176 14.2459L78.9141 12.2099H82.1642L83.0424 14.4266C83.0909 14.5695 83.1824 14.6927 83.3034 14.7783C83.4244 14.8639 83.5687 14.9075 83.7153 14.9026C83.8048 14.9071 83.8942 14.8922 83.9778 14.8588C84.0614 14.8255 84.1373 14.7744 84.2007 14.709C84.2641 14.6436 84.3135 14.5652 84.3458 14.4788C84.3781 14.3925 84.3925 14.3001 84.3882 14.2077C84.3957 14.0801 84.3773 13.9523 84.3343 13.8325ZM81.6999 10.7437H79.3447L80.529 7.39775L81.6999 10.7437Z" fill="#808080"/>
<path d="M90.5356 10.8366C91.1583 10.5521 91.6658 10.0528 91.9711 9.4243C92.2764 8.79577 92.3605 8.07713 92.209 7.39159C92.0574 6.70604 91.6797 6.09628 91.1405 5.66682C90.6013 5.23736 89.9343 5.01496 89.2537 5.03772H86.9692C86.2963 5.03772 86.0137 5.38517 86.0137 6.15998V14.054C86.0137 14.8114 86.5116 14.8913 86.7269 14.8913C87.1643 14.8913 87.4268 14.5786 87.4268 14.0574V11.1563H89.0518L90.9292 14.5057C90.9863 14.6317 91.0787 14.7372 91.1945 14.8085C91.3102 14.8797 91.4441 14.9134 91.5786 14.9052C91.667 14.9095 91.7553 14.8942 91.8375 14.8605C91.9197 14.8267 91.9941 14.7752 92.0555 14.7095C92.117 14.6437 92.1641 14.5652 92.1939 14.4791C92.2236 14.393 92.2352 14.3014 92.228 14.2103C92.2246 14.0101 92.175 13.8135 92.0833 13.637L90.5356 10.8366ZM90.8418 8.08483C90.849 8.29287 90.8158 8.5003 90.7441 8.69489C90.6725 8.88947 90.5639 9.06729 90.4247 9.21785C90.2854 9.36841 90.1184 9.48868 89.9335 9.57156C89.7486 9.65445 89.5495 9.69828 89.3479 9.70046H87.4268V6.49353H89.3479C89.548 6.4939 89.746 6.53568 89.9301 6.6164C90.1143 6.69712 90.2809 6.81513 90.4202 6.96347C90.5594 7.11182 90.6685 7.28748 90.7409 7.48008C90.8133 7.67268 90.8476 7.87831 90.8418 8.08483Z" fill="#808080"/>
<path d="M100.263 5.03757H94.2072C94.1096 5.02622 94.0108 5.03707 93.9177 5.06935C93.8246 5.10162 93.7395 5.15455 93.6683 5.22441C93.5971 5.29427 93.5416 5.37938 93.5057 5.47374C93.4697 5.56811 93.4542 5.66946 93.4602 5.77068C93.4558 5.87104 93.4724 5.97122 93.509 6.06431C93.5456 6.15739 93.6014 6.24117 93.6724 6.30987C93.7434 6.37856 93.8279 6.43054 93.9203 6.46222C94.0126 6.4939 94.1105 6.50453 94.2072 6.49337H96.5119V14.0955C96.4967 14.1997 96.5046 14.3061 96.535 14.4067C96.5655 14.5072 96.6177 14.5993 96.6877 14.676C96.7578 14.7526 96.8437 14.8118 96.9392 14.8491C97.0346 14.8864 97.137 14.9008 97.2386 14.8912C97.3381 14.8964 97.4374 14.8787 97.5294 14.8395C97.6215 14.8003 97.7039 14.7405 97.7709 14.6644C97.8378 14.5883 97.8876 14.4978 97.9165 14.3994C97.9455 14.301 97.953 14.1972 97.9384 14.0955V6.49337H100.263C100.358 6.50134 100.454 6.48834 100.544 6.45523C100.634 6.42211 100.716 6.36964 100.785 6.3013C100.853 6.23296 100.907 6.1503 100.943 6.05882C100.978 5.96733 100.994 5.86912 100.99 5.77068C100.996 5.67139 100.981 5.57201 100.946 5.47926C100.911 5.38651 100.857 5.30255 100.789 5.23305C100.72 5.16355 100.637 5.11014 100.546 5.07641C100.456 5.04269 100.359 5.02944 100.263 5.03757Z" fill="#808080"/>
<path d="M42.9273 13.8002L40.0809 5.76031C40.0225 5.54598 39.8978 5.35724 39.726 5.22281C39.5541 5.08838 39.3444 5.01562 39.1288 5.01562C38.9131 5.01562 38.7034 5.08838 38.5315 5.22281C38.3597 5.35724 38.235 5.54598 38.1766 5.76031L35.4244 13.8107C35.3836 13.9217 35.362 14.0393 35.3605 14.1581C35.3553 14.249 35.3685 14.34 35.3992 14.4253C35.4299 14.5106 35.4775 14.5885 35.5388 14.6538C35.6002 14.7191 35.6741 14.7706 35.7557 14.8049C35.8374 14.8392 35.9251 14.8556 36.0132 14.853C36.1976 14.851 36.376 14.7853 36.52 14.6662C36.6639 14.5472 36.7651 14.3817 36.8072 14.1963L37.507 12.1603H40.7572L41.6353 14.377C41.6816 14.5215 41.7724 14.6463 41.894 14.7323C42.0156 14.8183 42.1611 14.8607 42.3082 14.853C42.3975 14.8564 42.4865 14.8408 42.5696 14.8071C42.6527 14.7733 42.7283 14.7223 42.7914 14.6571C42.8546 14.5918 42.904 14.5139 42.9367 14.428C42.9693 14.3422 42.9845 14.2503 42.9812 14.1581C42.9847 14.0364 42.9665 13.9151 42.9273 13.8002ZM40.2929 10.7114H37.9377L39.122 7.36552L40.2929 10.7114Z" fill="#808080"/>
<path d="M14.0066 2.53984C13.2561 1.74318 12.3599 1.10843 11.3699 0.672421C10.38 0.236416 9.31597 0.00785163 8.23975 0L8.18592 0C6.03001 0.00982996 3.96407 0.893632 2.433 2.46108C0.901931 4.02853 0.0282159 6.15423 8.65155e-06 8.38042V20.1137C-0.000519481 20.2337 0.0231377 20.3525 0.0694762 20.4626C0.115815 20.5726 0.183821 20.6716 0.269171 20.753C0.428017 20.9089 0.638803 20.9959 0.857965 20.9959C1.07713 20.9959 1.28791 20.9089 1.44676 20.753L5.61205 16.5142C6.43718 16.7142 7.27652 16.8455 8.122 16.9068H8.19265C10.3426 16.8696 12.3951 15.9744 13.9199 14.4088C15.4447 12.8433 16.3234 10.7289 16.3718 8.50898C16.3793 7.40195 16.174 6.30439 15.768 5.27981C15.3621 4.25522 14.7633 3.32393 14.0066 2.53984ZM8.19265 15.6073H8.13209C7.29835 15.5404 6.47129 15.4033 5.65916 15.1973C5.5229 15.1669 5.38147 15.1719 5.24757 15.212C5.11366 15.252 4.99149 15.3258 4.89204 15.4266L1.25834 19.1096C1.25834 14.7352 1.25834 8.55067 1.25834 8.39432C1.28299 6.51003 2.02245 4.71091 3.31783 3.3836C4.61321 2.05629 6.36111 1.30672 8.18592 1.29598H8.23303C9.14547 1.30253 10.0476 1.49635 10.8868 1.86617C11.7261 2.23598 12.4858 2.77441 13.1217 3.45015C13.7649 4.11182 14.2746 4.89877 14.6211 5.76537C14.9677 6.63197 15.1442 7.56098 15.1404 8.49855C15.0996 10.3821 14.3525 12.1757 13.0566 13.5017C11.7606 14.8277 10.0169 15.5826 8.19265 15.6073Z" fill="#808080"/>
<path d="M9.92941 5.16005C9.78205 5.07753 9.60901 5.05879 9.44828 5.10794C9.28746 5.15839 9.15219 5.27189 9.07145 5.42411C8.99209 5.57636 8.97408 5.75478 9.02132 5.92066C9.06857 6.08653 9.17725 6.22647 9.32379 6.3101C9.78515 6.56802 10.1515 6.9756 10.3662 7.46992C10.5809 7.96425 10.632 8.51781 10.5117 9.04515C10.3915 9.57248 10.1064 10.0443 9.7006 10.3876C9.2948 10.731 8.79082 10.9269 8.26649 10.945C7.74215 10.9631 7.22662 10.8025 6.7995 10.4879C6.37237 10.1733 6.0574 9.7223 5.90323 9.20445C5.74906 8.6866 5.76425 8.13074 5.94647 7.6227C6.12868 7.11466 6.46779 6.68269 6.91142 6.39349C6.98549 6.34978 7.05023 6.29104 7.10175 6.22082C7.15327 6.15059 7.1905 6.07033 7.2112 5.98487C7.2319 5.8994 7.23565 5.81049 7.22221 5.72349C7.20877 5.63648 7.17843 5.55319 7.13301 5.47861C7.08759 5.40403 7.02803 5.33972 6.95791 5.28953C6.8878 5.23934 6.80857 5.20431 6.72501 5.18656C6.64144 5.16881 6.55527 5.1687 6.47166 5.18624C6.38805 5.20378 6.30875 5.2386 6.23851 5.28861C5.56123 5.732 5.04401 6.39317 4.76661 7.17015C4.4892 7.94713 4.46702 8.79678 4.70348 9.58807C4.93993 10.3794 5.4219 11.0683 6.07506 11.5488C6.72821 12.0292 7.51628 12.2744 8.31774 12.2466C9.11919 12.2187 9.88952 11.9194 10.5099 11.3947C11.1304 10.8701 11.5664 10.1492 11.7508 9.34328C11.9353 8.53736 11.8578 7.69118 11.5305 6.9352C11.2032 6.17923 10.6441 5.55545 9.9395 5.16005H9.92941Z" fill="#808080"/>
<path d="M8.1091 4.25293C8.02603 4.25293 7.94378 4.26983 7.86704 4.30265C7.79029 4.33548 7.72056 4.38359 7.66183 4.44425C7.60309 4.5049 7.5565 4.57691 7.52471 4.65616C7.49292 4.73541 7.47656 4.82035 7.47656 4.90613V7.6857C7.47656 7.85894 7.5432 8.02509 7.66183 8.14759C7.78045 8.27009 7.94134 8.3389 8.1091 8.3389C8.27685 8.3389 8.43774 8.27009 8.55636 8.14759C8.67499 8.02509 8.74163 7.85894 8.74163 7.6857V4.90613C8.74163 4.82035 8.72527 4.73541 8.69348 4.65616C8.66169 4.57691 8.6151 4.5049 8.55636 4.44425C8.49763 4.38359 8.4279 4.33548 8.35116 4.30265C8.27441 4.26983 8.19216 4.25293 8.1091 4.25293Z" fill="#808080"/>
</svg>
