<svg width="25" height="25" viewBox="0 0 25 25" fill="none" xmlns="http://www.w3.org/2000/svg">
<path fill-rule="evenodd" clip-rule="evenodd" d="M6.29883 16.2016C6.29883 16.4038 6.13486 16.5678 5.93262 16.5678C5.73037 16.5678 5.56641 16.4038 5.56641 16.2016V15.3959H4.76074C4.5585 15.3959 4.39453 15.2319 4.39453 15.0297C4.39453 14.8274 4.5585 14.6635 4.76074 14.6635H5.56641V13.8578C5.56641 13.6556 5.73037 13.4916 5.93262 13.4916C6.13486 13.4916 6.29883 13.6556 6.29883 13.8578V14.6635H7.10449C7.30674 14.6635 7.4707 14.8274 7.4707 15.0297C7.4707 15.2319 7.30674 15.3959 7.10449 15.3959H6.29883V16.2016ZM11.2088 18.2947C10.856 18.1239 10.6955 17.7222 10.8356 17.3601C10.9999 16.9355 11.1659 16.544 11.3394 16.1349C11.4094 15.9699 11.4806 15.8021 11.5533 15.628C11.4829 15.5878 11.4124 15.5476 11.3418 15.5073C10.9624 15.2909 10.581 15.0734 10.2021 14.8446C9.98945 14.7162 9.85293 14.5078 9.82754 14.2727C9.8019 14.0354 9.89219 13.7998 10.0753 13.6263C10.4182 13.3015 10.7603 12.978 11.1025 12.6546C11.7014 12.0885 12.3003 11.5224 12.9031 10.9487C13.2654 10.604 13.8034 10.6275 14.0837 11.0333C14.2218 11.233 14.2518 11.4875 14.1641 11.7139C13.9456 12.2779 13.7061 12.8403 13.4729 13.3877L13.4471 13.4485C13.5878 13.5299 13.7285 13.6114 13.8692 13.693C14.17 13.8673 14.4708 14.0416 14.7722 14.2148C14.9974 14.3443 15.143 14.5565 15.1716 14.7972C15.2 15.0351 15.11 15.2723 14.9249 15.4479C14.1544 16.1787 13.3731 16.9179 12.5976 17.6516C12.4301 17.81 12.2629 17.9682 12.0962 18.126C11.8042 18.4023 11.4869 18.4293 11.2088 18.2947ZM11.9853 16.4947C11.9061 16.6849 11.8273 16.874 11.7482 17.0626C11.6709 17.2469 11.5911 17.4374 11.5187 17.6245C11.517 17.6288 11.5272 17.6358 11.5342 17.6383C11.6012 17.6038 12.5774 16.673 13.4874 15.8052C13.824 15.4842 14.1516 15.1718 14.4208 14.9166C14.4396 14.8988 14.4354 14.8661 14.407 14.8499C14.0986 14.6726 13.7909 14.4943 13.4831 14.3159C13.2717 14.1933 13.0602 14.0708 12.8485 13.9486C12.6521 13.8352 12.5788 13.6201 12.6663 13.4134C12.7154 13.2974 12.7649 13.1812 12.8144 13.0647C13.0416 12.5305 13.271 11.9913 13.4811 11.4494C13.4811 11.4494 13.4753 11.441 13.46 11.4374C13.4006 11.4756 12.4359 12.3931 11.5283 13.2562C11.1867 13.5811 10.8531 13.8982 10.579 14.158C10.5448 14.1904 10.5437 14.1953 10.5807 14.2176C10.959 14.4458 11.3421 14.6643 11.7243 14.8823C11.8666 14.9634 12.0088 15.0446 12.1506 15.1261C12.3782 15.2569 12.4069 15.4888 12.3344 15.6604C12.2154 15.9423 12.0998 16.2196 11.9853 16.4947ZM20.6055 15.0297C20.6055 15.2319 20.4415 15.3959 20.2393 15.3959H17.8955C17.6933 15.3959 17.5293 15.2319 17.5293 15.0297C17.5293 14.8274 17.6933 14.6635 17.8955 14.6635H20.2393C20.4415 14.6635 20.6055 14.8274 20.6055 15.0297ZM25 6.04531C25 6.65112 24.5072 7.14395 23.9014 7.14395H23.5352V21.9313H23.9014C24.5072 21.9313 25 22.4242 25 23.03V23.9014C25 24.5072 24.5072 25 23.9014 25H1.09863C0.492822 25 0 24.5072 0 23.9014V23.03C0 22.4242 0.492822 21.9313 1.09863 21.9313H1.46484V11.1631C1.46484 10.9609 1.62881 10.7969 1.83105 10.7969C2.0333 10.7969 2.19727 10.9609 2.19727 11.1631V21.9313H22.8027V7.14395H2.19727V11.2177C2.19727 11.42 2.0333 11.5839 1.83105 11.5839C1.62881 11.5839 1.46484 11.42 1.46484 11.2177V7.14395H1.09863C0.492822 7.14395 0 6.65112 0 6.04531V4.97129C0 4.36548 0.492822 3.87266 1.09863 3.87266H2.60225V2.79082C2.60225 2.31968 2.9856 1.93633 3.45674 1.93633H3.62764V0.854492C3.62764 0.38335 4.01099 0 4.48213 0H6.5042C6.97534 0 7.35869 0.38335 7.35869 0.854492V1.93633H7.52959C8.00073 1.93633 8.38408 2.31968 8.38408 2.79082V3.87266H16.6159V2.79082C16.6159 2.31968 16.9993 1.93633 17.4704 1.93633H17.6413V0.854492C17.6413 0.38335 18.0247 0 18.4958 0H20.5179C20.989 0 21.3724 0.38335 21.3724 0.854492V1.93633H21.5433C22.0144 1.93633 22.3978 2.31968 22.3978 2.79082V3.87266H23.9014C24.5072 3.87266 25 4.36548 25 4.97129V6.04531ZM18.4958 0.732422C18.4285 0.732422 18.3737 0.787207 18.3737 0.854492V1.93633H20.6399V0.854492C20.6399 0.787207 20.5852 0.732422 20.5179 0.732422H18.4958ZM17.4704 2.66875C17.4031 2.66875 17.3483 2.72354 17.3483 2.79082V3.87266H21.6653V2.79082C21.6653 2.72354 21.6105 2.66875 21.5433 2.66875H17.4704ZM4.48213 0.732422C4.41484 0.732422 4.36006 0.787207 4.36006 0.854492V1.93633H6.62627V0.854492C6.62627 0.787207 6.57148 0.732422 6.5042 0.732422H4.48213ZM3.45674 2.66875C3.38945 2.66875 3.33467 2.72354 3.33467 2.79082V3.87266H7.65166V2.79082C7.65166 2.72354 7.59687 2.66875 7.52959 2.66875H3.45674ZM24.2676 23.03C24.2676 22.8281 24.1033 22.6638 23.9014 22.6638H1.09863C0.89668 22.6638 0.732422 22.8281 0.732422 23.03V23.9014C0.732422 24.1033 0.89668 24.2676 1.09863 24.2676H23.9014C24.1033 24.2676 24.2676 24.1033 24.2676 23.9014V23.03ZM0.732422 6.04531C0.732422 6.24727 0.89668 6.41152 1.09863 6.41152H23.9014C24.1033 6.41152 24.2676 6.24727 24.2676 6.04531V4.97129C24.2676 4.76934 24.1033 4.60508 23.9014 4.60508H1.09863C0.89668 4.60508 0.732422 4.76934 0.732422 4.97129V6.04531Z" fill="white"/>
<path d="M1.46484 11.1631V11.2177C1.46484 11.42 1.62881 11.5839 1.83105 11.5839C2.0333 11.5839 2.19727 11.42 2.19727 11.2177V11.1631C2.19727 10.9609 2.0333 10.7969 1.83105 10.7969C1.62881 10.7969 1.46484 10.9609 1.46484 11.1631Z" fill="white"/>
</svg>
