<svg width="25" height="22" viewBox="0 0 25 22" fill="none" xmlns="http://www.w3.org/2000/svg">
<path d="M16.8771 10.0735C16.8753 10.0735 16.8737 10.0735 16.8719 10.0735H14.7783V7.97473C14.7811 7.55144 14.4403 7.20595 14.017 7.20312C14.0153 7.20312 14.0135 7.20312 14.0118 7.20312H10.9872C10.5639 7.20312 10.2207 7.5463 10.2207 7.96959V10.0684H8.12707C7.70378 10.0655 7.3583 10.4063 7.35547 10.8296C7.35547 10.8331 7.35547 10.8365 7.35547 10.84V13.8595C7.35547 14.2828 7.69864 14.626 8.12193 14.626H10.2207V16.7196C10.2179 17.1429 10.5587 17.4884 10.982 17.4912C10.9837 17.4912 10.9855 17.4912 10.9872 17.4912H14.0067C14.43 17.4912 14.7732 17.148 14.7732 16.7247V14.626H16.8719C17.2952 14.6288 17.6407 14.2879 17.6435 13.8646C17.6435 13.8629 17.6435 13.8612 17.6435 13.8595V10.84C17.6435 10.4167 17.3004 10.0735 16.8771 10.0735ZM16.6147 13.5972H14.2639C13.9798 13.5972 13.7495 13.8275 13.7495 14.1116V16.4624H11.2495V14.1116C11.2495 13.8275 11.0192 13.5972 10.7351 13.5972H8.38427V11.1023H10.7351C11.0192 11.1023 11.2495 10.872 11.2495 10.5879V8.23193H13.7444V10.5828C13.7444 10.8668 13.9747 11.0972 14.2588 11.0972H16.6147V13.5972Z" fill="white"/>
<path d="M21.4506 3.35597H17.2119V1.54527C17.2386 0.719014 16.5904 0.0275276 15.7641 0.000842955C15.722 -0.000507354 15.6799 -0.000121609 15.6379 0.0020646H9.36214C8.53652 -0.0409524 7.83237 0.593435 7.78929 1.41899C7.7871 1.46104 7.78665 1.50316 7.78807 1.54527V3.34569H3.54938C1.91358 3.34569 0 4.27676 0 6.89507V18.0833C0 20.7017 1.91358 21.6327 3.54938 21.6327H21.4506C23.0864 21.6327 25 20.7017 25 18.0833V6.90536C25 4.28704 23.0916 3.35597 21.4506 3.35597ZM8.81687 1.54527C8.81687 1.3961 8.81687 0.994863 9.36728 0.994863H15.6379C16.1883 0.994863 16.1883 1.39095 16.1883 1.54527V3.34569H8.81687V1.54527ZM23.9712 18.0833C23.9712 20.357 22.2119 20.6039 21.4506 20.6039H3.54938C2.79321 20.6039 1.02881 20.357 1.02881 18.0833V6.90536C1.02881 4.63169 2.78807 4.38478 3.54938 4.38478H21.4506C22.2068 4.38478 23.9712 4.63169 23.9712 6.90536V18.0833Z" fill="white"/>
</svg>
