<svg width="18" height="25" viewBox="0 0 18 25" fill="none" xmlns="http://www.w3.org/2000/svg">
<path d="M15.7423 2.17875L11.2526 0.441667C10.4683 0.136406 9.61293 0.193229 8.86389 0.600417L5.02651 2.67917V0.416667C5.02651 0.186562 4.86575 0 4.66747 0H0.359036C0.160759 0 0 0.186562 0 0.416667V22.0833C0.00157078 23.6934 1.12589 24.9982 2.51326 25H15.4386C16.8259 24.9982 17.9503 23.6934 17.9518 22.0833V5.73583C17.9532 4.1213 17.0626 2.6876 15.7423 2.17875ZM0.718073 0.833333H1.43615H1.46188H2.15422H2.87229H3.57148H3.59036H4.30844V2.91667H0.718073V0.833333ZM17.2337 22.0833C17.2326 23.2333 16.4295 24.1653 15.4386 24.1667H2.51326C1.52231 24.1653 0.71924 23.2333 0.718073 22.0833V3.75H4.66747C4.71783 3.74974 4.76751 3.73693 4.81324 3.7125C4.8154 3.7125 4.81755 3.7125 4.81935 3.7125L9.16764 1.35583C9.75013 1.03927 10.4152 0.994531 11.0253 1.23083L15.515 2.96875C16.5421 3.36469 17.2347 4.47995 17.2337 5.73583V22.0833Z" fill="white"/>
<path d="M14.8404 4.55585L10.7036 2.75418C10.2529 2.55902 9.74554 2.68663 9.40495 3.08085L9.33781 3.15876C8.85863 3.71501 8.85877 4.61678 9.33812 5.17283C9.46751 5.32293 9.62419 5.43756 9.79666 5.50835L14.0013 7.23043C14.1333 7.28491 14.2723 7.31309 14.4124 7.31376C15.0904 7.311 15.638 6.671 15.6357 5.88423C15.6339 5.29277 15.3174 4.76413 14.8404 4.55585ZM14.8921 6.0896C14.7961 6.3959 14.5044 6.55387 14.2405 6.44251L10.0358 4.7221C9.77117 4.61303 9.63285 4.27574 9.72683 3.96866C9.75196 3.88647 9.79248 3.81184 9.84549 3.75001L9.91263 3.6721C10.0539 3.50855 10.2643 3.45564 10.4512 3.53668L14.588 5.33335C14.8519 5.4447 14.9881 5.78329 14.8921 6.0896Z" fill="white"/>
<path d="M14.9012 10.624C14.2071 10.624 13.6445 11.2769 13.6445 12.0824V18.9574C13.6445 19.7628 14.2071 20.4157 14.9012 20.4157C15.5952 20.4157 16.1578 19.7628 16.1578 18.9574V12.0824C16.1578 11.2769 15.5952 10.624 14.9012 10.624ZM15.4397 18.9574C15.4397 19.3025 15.1986 19.5824 14.9012 19.5824C14.6037 19.5824 14.3626 19.3025 14.3626 18.9574V12.0824C14.3626 11.7372 14.6037 11.4574 14.9012 11.4574C15.1986 11.4574 15.4397 11.7372 15.4397 12.0824V18.9574Z" fill="white"/>
<path d="M11.3887 7.95867L8.38461 6.69076C8.34516 6.67461 8.30365 6.66659 8.26182 6.66701H3.95339C2.96244 6.66836 2.15937 7.60034 2.1582 8.75034V20.417C2.15937 21.567 2.96244 22.499 3.95339 22.5003H10.7751C11.766 22.499 12.5691 21.567 12.5703 20.417V9.91701C12.5692 9.04128 12.0974 8.25935 11.3887 7.95867ZM11.8522 20.417C11.8522 21.1074 11.37 21.667 10.7751 21.667H3.95339C3.35851 21.667 2.87628 21.1074 2.87628 20.417V8.75034C2.87628 8.05998 3.35851 7.50034 3.95339 7.50034H8.19863L11.1434 8.74284C11.5681 8.92352 11.851 9.39206 11.8522 9.91701V20.417Z" fill="white"/>
</svg>
