<svg width="25" height="25" viewBox="0 0 25 25" fill="none" xmlns="http://www.w3.org/2000/svg">
<path fill-rule="evenodd" clip-rule="evenodd" d="M23.2707 0.833333H19.2618C18.8028 0.833333 18.4307 1.20643 18.4307 1.66667V5.68627C18.4307 6.14651 18.8028 6.51961 19.2618 6.51961H23.2707C23.7297 6.51961 24.1018 6.14651 24.1018 5.68627V1.66667C24.1018 1.20643 23.7297 0.833333 23.2707 0.833333ZM19.2618 0C18.3438 0 17.5996 0.746192 17.5996 1.66667V5.68627C17.5996 6.60675 18.3438 7.35294 19.2618 7.35294H23.2707C24.1887 7.35294 24.9329 6.60675 24.9329 5.68627V1.66667C24.9329 0.746192 24.1887 0 23.2707 0H19.2618Z" fill="white"/>
<path fill-rule="evenodd" clip-rule="evenodd" d="M23.2707 9.65658H19.2618C18.8028 9.65658 18.4307 10.0297 18.4307 10.4899V14.5095C18.4307 14.9698 18.8028 15.3428 19.2618 15.3428H23.2707C23.7297 15.3428 24.1018 14.9698 24.1018 14.5095V10.4899C24.1018 10.0297 23.7297 9.65658 23.2707 9.65658ZM19.2618 8.82324C18.3438 8.82324 17.5996 9.56943 17.5996 10.4899V14.5095C17.5996 15.43 18.3438 16.1762 19.2618 16.1762H23.2707C24.1887 16.1762 24.9329 15.43 24.9329 14.5095V10.4899C24.9329 9.56943 24.1887 8.82324 23.2707 8.82324H19.2618Z" fill="white"/>
<path fill-rule="evenodd" clip-rule="evenodd" d="M14.4718 0.833333H10.463C10.004 0.833333 9.63188 1.20643 9.63188 1.66667V5.68627C9.63188 6.14651 10.004 6.51961 10.463 6.51961H14.4718C14.9308 6.51961 15.3029 6.14651 15.3029 5.68627V1.66667C15.3029 1.20643 14.9308 0.833333 14.4718 0.833333ZM10.463 0C9.54498 0 8.80078 0.746192 8.80078 1.66667V5.68627C8.80078 6.60675 9.54498 7.35294 10.463 7.35294H14.4718C15.3898 7.35294 16.134 6.60675 16.134 5.68627V1.66667C16.134 0.746192 15.3898 0 14.4718 0H10.463Z" fill="white"/>
<path fill-rule="evenodd" clip-rule="evenodd" d="M14.4718 9.65658H10.463C10.004 9.65658 9.63188 10.0297 9.63188 10.4899V14.5095C9.63188 14.9698 10.004 15.3428 10.463 15.3428H14.4718C14.9308 15.3428 15.3029 14.9698 15.3029 14.5095V10.4899C15.3029 10.0297 14.9308 9.65658 14.4718 9.65658ZM10.463 8.82324C9.54498 8.82324 8.80078 9.56943 8.80078 10.4899V14.5095C8.80078 15.43 9.54498 16.1762 10.463 16.1762H14.4718C15.3898 16.1762 16.134 15.43 16.134 14.5095V10.4899C16.134 9.56943 15.3898 8.82324 14.4718 8.82324H10.463Z" fill="white"/>
<path fill-rule="evenodd" clip-rule="evenodd" d="M23.2707 18.4808H19.2618C18.8028 18.4808 18.4307 18.8539 18.4307 19.3141V23.3337C18.4307 23.794 18.8028 24.1671 19.2618 24.1671H23.2707C23.7297 24.1671 24.1018 23.794 24.1018 23.3337V19.3141C24.1018 18.8539 23.7297 18.4808 23.2707 18.4808ZM19.2618 17.6475C18.3438 17.6475 17.5996 18.3937 17.5996 19.3141V23.3337C17.5996 24.2542 18.3438 25.0004 19.2618 25.0004H23.2707C24.1887 25.0004 24.9329 24.2542 24.9329 23.3337V19.3141C24.9329 18.3937 24.1887 17.6475 23.2707 17.6475H19.2618Z" fill="white"/>
<path fill-rule="evenodd" clip-rule="evenodd" d="M14.4718 18.4808H10.463C10.004 18.4808 9.63188 18.8539 9.63188 19.3141V23.3337C9.63188 23.794 10.004 24.1671 10.463 24.1671H14.4718C14.9308 24.1671 15.3029 23.794 15.3029 23.3337V19.3141C15.3029 18.8539 14.9308 18.4808 14.4718 18.4808ZM10.463 17.6475C9.54498 17.6475 8.80078 18.3937 8.80078 19.3141V23.3337C8.80078 24.2542 9.54498 25.0004 10.463 25.0004H14.4718C15.3898 25.0004 16.134 24.2542 16.134 23.3337V19.3141C16.134 18.3937 15.3898 17.6475 14.4718 17.6475H10.463Z" fill="white"/>
<path fill-rule="evenodd" clip-rule="evenodd" d="M5.67106 0.833333H1.66221C1.2032 0.833333 0.831103 1.20643 0.831103 1.66667V5.68627C0.831103 6.14651 1.2032 6.51961 1.66221 6.51961H5.67106C6.13006 6.51961 6.50216 6.14651 6.50216 5.68627V1.66667C6.50216 1.20643 6.13006 0.833333 5.67106 0.833333ZM1.66221 0C0.744195 0 0 0.746192 0 1.66667V5.68627C0 6.60675 0.744195 7.35294 1.66221 7.35294H5.67106C6.58907 7.35294 7.33326 6.60675 7.33326 5.68627V1.66667C7.33326 0.746192 6.58907 0 5.67106 0H1.66221Z" fill="white"/>
<path fill-rule="evenodd" clip-rule="evenodd" d="M5.67106 9.65658H1.66221C1.2032 9.65658 0.831103 10.0297 0.831103 10.4899V14.5095C0.831103 14.9698 1.2032 15.3428 1.66221 15.3428H5.67106C6.13006 15.3428 6.50216 14.9698 6.50216 14.5095V10.4899C6.50216 10.0297 6.13006 9.65658 5.67106 9.65658ZM1.66221 8.82324C0.744195 8.82324 0 9.56943 0 10.4899V14.5095C0 15.43 0.744195 16.1762 1.66221 16.1762H5.67106C6.58907 16.1762 7.33326 15.43 7.33326 14.5095V10.4899C7.33326 9.56943 6.58907 8.82324 5.67106 8.82324H1.66221Z" fill="white"/>
<path fill-rule="evenodd" clip-rule="evenodd" d="M5.67106 18.4808H1.66221C1.2032 18.4808 0.831103 18.8539 0.831103 19.3141V23.3337C0.831103 23.794 1.2032 24.1671 1.66221 24.1671H5.67106C6.13006 24.1671 6.50216 23.794 6.50216 23.3337V19.3141C6.50216 18.8539 6.13006 18.4808 5.67106 18.4808ZM1.66221 17.6475C0.744195 17.6475 0 18.3937 0 19.3141V23.3337C0 24.2542 0.744195 25.0004 1.66221 25.0004H5.67106C6.58907 25.0004 7.33326 24.2542 7.33326 23.3337V19.3141C7.33326 18.3937 6.58907 17.6475 5.67106 17.6475H1.66221Z" fill="white"/>
</svg>
