<svg width="17" height="17" viewBox="0 0 17 17" fill="none" xmlns="http://www.w3.org/2000/svg">
<path fill-rule="evenodd" clip-rule="evenodd" d="M14.4699 0.833333H10.461C10.002 0.833333 9.62993 1.20643 9.62993 1.66667V5.68627C9.62993 6.14651 10.002 6.51961 10.461 6.51961H14.4699C14.9289 6.51961 15.301 6.14651 15.301 5.68627V1.66667C15.301 1.20643 14.9289 0.833333 14.4699 0.833333ZM10.461 0C9.54302 0 8.79883 0.746192 8.79883 1.66667V5.68627C8.79883 6.60675 9.54302 7.35294 10.461 7.35294H14.4699C15.3879 7.35294 16.1321 6.60675 16.1321 5.68627V1.66667C16.1321 0.746192 15.3879 0 14.4699 0H10.461Z" fill="#F2691C"/>
<path d="M10.461 0.833333H14.4699C14.9289 0.833333 15.301 1.20643 15.301 1.66667V5.68627C15.301 6.14651 14.9289 6.51961 14.4699 6.51961H10.461C10.002 6.51961 9.62993 6.14651 9.62993 5.68627V1.66667C9.62993 1.20643 10.002 0.833333 10.461 0.833333Z" fill="#F2691C"/>
<path fill-rule="evenodd" clip-rule="evenodd" d="M14.4699 9.65658H10.461C10.002 9.65658 9.62993 10.0297 9.62993 10.4899V14.5095C9.62993 14.9698 10.002 15.3428 10.461 15.3428H14.4699C14.9289 15.3428 15.301 14.9698 15.301 14.5095V10.4899C15.301 10.0297 14.9289 9.65658 14.4699 9.65658ZM10.461 8.82324C9.54302 8.82324 8.79883 9.56943 8.79883 10.4899V14.5095C8.79883 15.43 9.54302 16.1762 10.461 16.1762H14.4699C15.3879 16.1762 16.1321 15.43 16.1321 14.5095V10.4899C16.1321 9.56943 15.3879 8.82324 14.4699 8.82324H10.461Z" fill="#F2691C"/>
<path d="M10.461 9.65658H14.4699C14.9289 9.65658 15.301 10.0297 15.301 10.4899V14.5095C15.301 14.9698 14.9289 15.3428 14.4699 15.3428H10.461C10.002 15.3428 9.62993 14.9698 9.62993 14.5095V10.4899C9.62993 10.0297 10.002 9.65658 10.461 9.65658Z" fill="#F2691C"/>
<path fill-rule="evenodd" clip-rule="evenodd" d="M5.67106 0.833333H1.66221C1.2032 0.833333 0.831103 1.20643 0.831103 1.66667V5.68627C0.831103 6.14651 1.2032 6.51961 1.66221 6.51961H5.67106C6.13006 6.51961 6.50216 6.14651 6.50216 5.68627V1.66667C6.50216 1.20643 6.13006 0.833333 5.67106 0.833333ZM1.66221 0C0.744195 0 0 0.746192 0 1.66667V5.68627C0 6.60675 0.744195 7.35294 1.66221 7.35294H5.67106C6.58907 7.35294 7.33326 6.60675 7.33326 5.68627V1.66667C7.33326 0.746192 6.58907 0 5.67106 0H1.66221Z" fill="#F2691C"/>
<path d="M1.66221 0.833333H5.67106C6.13006 0.833333 6.50216 1.20643 6.50216 1.66667V5.68627C6.50216 6.14651 6.13006 6.51961 5.67106 6.51961H1.66221C1.2032 6.51961 0.831103 6.14651 0.831103 5.68627V1.66667C0.831103 1.20643 1.2032 0.833333 1.66221 0.833333Z" fill="#F2691C"/>
<path fill-rule="evenodd" clip-rule="evenodd" d="M5.67106 9.65658H1.66221C1.2032 9.65658 0.831103 10.0297 0.831103 10.4899V14.5095C0.831103 14.9698 1.2032 15.3428 1.66221 15.3428H5.67106C6.13006 15.3428 6.50216 14.9698 6.50216 14.5095V10.4899C6.50216 10.0297 6.13006 9.65658 5.67106 9.65658ZM1.66221 8.82324C0.744195 8.82324 0 9.56943 0 10.4899V14.5095C0 15.43 0.744195 16.1762 1.66221 16.1762H5.67106C6.58907 16.1762 7.33326 15.43 7.33326 14.5095V10.4899C7.33326 9.56943 6.58907 8.82324 5.67106 8.82324H1.66221Z" fill="#F2691C"/>
<path d="M1.66221 9.65658H5.67106C6.13006 9.65658 6.50216 10.0297 6.50216 10.4899V14.5095C6.50216 14.9698 6.13006 15.3428 5.67106 15.3428H1.66221C1.2032 15.3428 0.831103 14.9698 0.831103 14.5095V10.4899C0.831103 10.0297 1.2032 9.65658 1.66221 9.65658Z" fill="#F2691C"/>
</svg>
