<svg width="25" height="25" viewBox="0 0 25 25" fill="none" xmlns="http://www.w3.org/2000/svg">
<path d="M18.3594 22.4111C17.9559 22.4111 17.6289 22.7391 17.6289 23.1436C17.6289 23.5481 17.9559 23.876 18.3594 23.876C18.7628 23.876 19.0898 23.5481 19.0898 23.1436C19.0894 22.7393 18.7626 22.4116 18.3594 22.4111ZM19.0147 23.3314L18.969 23.3165L18.9539 23.3629L18.9999 23.3779C18.9809 23.4298 18.9556 23.4793 18.9247 23.5252L18.8858 23.4969L18.8571 23.5364L18.8958 23.5645C18.8618 23.6081 18.8226 23.6474 18.7793 23.6816L18.7512 23.6428L18.7118 23.6715L18.74 23.7106C18.6943 23.7415 18.6449 23.7668 18.5931 23.7858L18.5782 23.7397L18.5319 23.7549L18.5468 23.8007C18.4937 23.816 18.4389 23.8247 18.3837 23.8266V23.7784H18.335V23.8266C18.2798 23.8247 18.2251 23.816 18.172 23.8007L18.1869 23.7549L18.1406 23.7397L18.1256 23.7858C18.0738 23.7668 18.0244 23.7415 17.9787 23.7105L18.0069 23.6714L17.9675 23.6427L17.9394 23.6815C17.896 23.6473 17.8569 23.608 17.8228 23.5645L17.8615 23.5363L17.8329 23.4968L17.7939 23.5252C17.7631 23.4793 17.7379 23.4299 17.719 23.378L17.7649 23.363L17.7499 23.3166L17.7041 23.3315C17.6889 23.2783 17.6802 23.2234 17.6782 23.168H17.7263V23.1192H17.6782C17.6801 23.0638 17.6888 23.009 17.704 22.9557L17.7497 22.9707L17.7648 22.9243L17.719 22.9092C17.738 22.8572 17.7632 22.8078 17.7941 22.7619L17.8331 22.7902L17.8617 22.7507L17.8228 22.7225C17.8569 22.679 17.8961 22.6398 17.9395 22.6056L17.9676 22.6444L18.007 22.6157L17.9787 22.5766C18.0245 22.5457 18.0738 22.5205 18.1256 22.5015L18.1405 22.5475L18.1868 22.5324L18.1719 22.4866C18.225 22.4713 18.2798 22.4625 18.335 22.4606V22.5088H18.3837V22.4606C18.4389 22.4625 18.4936 22.4712 18.5467 22.4864L18.5318 22.5323L18.5781 22.5474L18.5931 22.5015C18.6449 22.5205 18.6943 22.5458 18.74 22.5768L18.7118 22.6159L18.7512 22.6446L18.7793 22.6058C18.8227 22.64 18.8619 22.6792 18.8959 22.7228L18.8572 22.7509L18.8859 22.7904L18.9248 22.7621C18.9557 22.8079 18.9809 22.8573 18.9999 22.9092L18.9539 22.9242L18.969 22.9706L19.0147 22.9556C19.0299 23.0089 19.0386 23.0638 19.0405 23.1192H18.9924V23.168H19.0405C19.0386 23.2233 19.0299 23.2782 19.0147 23.3314Z" fill="white"/>
<path d="M18.3597 22.7285C18.1308 22.7285 17.9453 22.9143 17.9453 23.1436C17.9453 23.3728 18.1308 23.5586 18.3597 23.5586C18.5886 23.5586 18.7741 23.3728 18.7741 23.1436C18.7738 22.9144 18.5885 22.7288 18.3597 22.7285ZM18.6731 22.956C18.7015 23.0031 18.7188 23.0561 18.7237 23.1109L18.571 23.0985C18.5576 23.0974 18.5476 23.0856 18.5488 23.0721C18.5493 23.0658 18.5523 23.0599 18.5571 23.0557L18.6731 22.956ZM18.4411 22.7868L18.3822 22.9284C18.377 22.9409 18.3627 22.9468 18.3503 22.9416C18.3444 22.9391 18.3397 22.9344 18.3372 22.9284L18.2783 22.7868C18.3318 22.7742 18.3876 22.7742 18.4411 22.7868ZM18.0463 22.956L18.1623 23.0557C18.1725 23.0645 18.1737 23.0799 18.1649 23.0901C18.1607 23.095 18.1548 23.098 18.1484 23.0985L17.9957 23.1109C18.0006 23.0561 18.0179 23.0031 18.0463 22.956ZM18.2515 23.3309L18.2161 23.4803C18.1657 23.4585 18.1208 23.4256 18.0847 23.3842H18.0846L18.2151 23.3044C18.2266 23.2974 18.2416 23.301 18.2486 23.3126C18.252 23.3181 18.253 23.3247 18.2515 23.3309ZM18.5033 23.4803H18.5032L18.4677 23.3309C18.4646 23.3178 18.4727 23.3046 18.4858 23.3015C18.4921 23.3 18.4987 23.3011 18.5041 23.3044L18.6346 23.3842C18.5986 23.4256 18.5537 23.4585 18.5033 23.4803ZM18.5296 23.2627C18.4951 23.2417 18.4501 23.2526 18.4291 23.2871C18.419 23.3036 18.4159 23.3234 18.4204 23.3422L18.4569 23.4962C18.3933 23.5143 18.326 23.5143 18.2624 23.4962H18.2624L18.2989 23.3422C18.3083 23.3029 18.284 23.2634 18.2447 23.254C18.2259 23.2496 18.2062 23.2527 18.1897 23.2628L18.0548 23.3452C18.0184 23.2901 17.9977 23.226 17.9949 23.1599L18.1523 23.1472C18.1926 23.1439 18.2225 23.1085 18.2192 23.0682C18.2176 23.049 18.2086 23.0311 18.1939 23.0186L18.074 22.9155C18.1152 22.8639 18.1696 22.8243 18.2314 22.8011L18.2921 22.9471C18.3076 22.9845 18.3504 23.0021 18.3877 22.9866C18.4055 22.9792 18.4197 22.965 18.4271 22.9471L18.4879 22.8011C18.5497 22.8243 18.604 22.8639 18.6452 22.9155L18.5255 23.0186C18.4948 23.0449 18.4913 23.0911 18.5176 23.1218C18.5301 23.1365 18.5479 23.1456 18.5672 23.1472L18.7246 23.1599C18.7218 23.226 18.7011 23.2901 18.6647 23.3452L18.5296 23.2627Z" fill="white"/>
<path d="M8.97952 14.2285L2.02898 21.1987C1.54242 21.6868 1.54242 22.4779 2.02898 22.966C2.51574 23.4541 3.30493 23.4541 3.79168 22.966L10.7426 15.9967C11.2295 15.5085 11.2295 14.7169 10.7428 14.2287C10.2558 13.7402 9.46646 13.7402 8.97952 14.2285ZM10.155 15.4072L3.20411 22.3768C3.03996 22.5349 2.7807 22.5349 2.61655 22.3768C2.4543 22.2141 2.4543 21.9506 2.61655 21.7877L9.56708 14.818C9.67208 14.7126 9.82501 14.6715 9.96843 14.7099C10.1118 14.7484 10.2239 14.8608 10.2625 15.0046C10.3009 15.1484 10.26 15.3017 10.155 15.4072Z" fill="white"/>
<path d="M21.8331 19.6315L23.5324 21.3357C23.7624 21.5661 24.1063 21.6386 24.4093 21.5203C24.7053 21.4097 24.9073 21.133 24.9225 20.8165C25.0072 19.4004 24.4078 18.0298 23.3112 17.1332C22.2148 16.2365 20.7553 15.9232 19.3889 16.2913C19.2563 16.3266 19.1148 16.2903 19.0149 16.1959L14.7774 11.9493L24.2668 2.43573C24.3294 2.3726 24.3817 2.29974 24.4217 2.22001L24.8451 1.3705C25.0054 1.04951 24.9427 0.661562 24.6893 0.407892L24.5244 0.244627C24.2714 -0.00942482 23.8847 -0.0725564 23.5646 0.088038L22.7185 0.51203C22.6383 0.552274 22.565 0.605297 22.5017 0.66881L13.0149 10.1818L8.78151 5.93695C8.6864 5.83739 8.64931 5.69549 8.68336 5.56198C9.05142 4.19235 8.74023 2.72888 7.84738 1.62875C6.95453 0.528623 5.5888 -0.0742729 4.17667 0.00888522C3.85921 0.022427 3.58093 0.225363 3.47022 0.523855C3.35267 0.827497 3.42476 1.17215 3.65435 1.40293L5.348 3.09127L4.68929 4.65906L3.11662 5.3516L1.4167 3.64324C1.18711 3.41265 0.843209 3.33998 0.540392 3.45823C0.242901 3.56981 0.0405151 3.84846 0.0258688 4.1666C-0.0563027 5.58182 0.543816 6.95068 1.63963 7.84654C2.73544 8.7424 4.19341 9.05653 5.55951 8.69071C5.69209 8.65542 5.83361 8.69147 5.93347 8.78607L9.33788 12.1998L8.72616 12.3226C8.56562 12.3552 8.4184 12.4344 8.30275 12.5505L0.851959 20.0208C-0.283986 21.1599 -0.283986 23.0065 0.851959 24.1457C1.9879 25.2848 3.82973 25.2848 4.96567 24.1457L12.4155 16.675C12.5313 16.5587 12.6103 16.4107 12.6424 16.2495L12.7518 15.6213L16.1669 19.0458C16.2618 19.1456 16.2989 19.2871 16.2654 19.4208C15.9106 20.7477 16.1918 22.1646 17.0262 23.2543C17.8607 24.3439 19.1532 24.9821 20.5233 24.9811C20.6064 24.9811 20.6895 24.9784 20.7727 24.9739C21.0913 24.9603 21.3709 24.757 21.4827 24.4578C21.6001 24.1547 21.5284 23.8108 21.2995 23.5806L19.6008 21.8949L20.2753 20.309L21.8331 19.6315ZM23.0892 1.25702L23.9364 0.83341L24.1006 1.00011L23.6772 1.84752L13.0917 12.4614L12.5041 11.8723L23.0892 1.25702ZM6.51932 8.19367C6.20966 7.89308 5.76627 7.77597 5.34914 7.88449C4.11637 8.21236 2.80239 7.85989 1.89793 6.95812C1.18312 6.23468 0.796227 5.24823 0.827802 4.2303L2.52773 5.93867C2.76378 6.17556 3.12023 6.24365 3.42648 6.11033L5.02502 5.41989C5.21142 5.33444 5.36036 5.18357 5.44348 4.9957L6.10827 3.42371C6.24675 3.11663 6.18036 2.75558 5.94222 2.51793L4.22194 0.840848C5.36854 0.772567 6.47804 1.26198 7.20275 2.15555C7.92746 3.04931 8.17892 4.23812 7.87857 5.34989C7.7711 5.76892 7.88942 6.2137 8.19052 6.52364L12.4273 10.771L11.9166 11.2831L11.3294 10.6943C11.1127 10.4771 10.7941 10.397 10.5008 10.486C10.1988 10.5803 9.97509 10.8366 9.92202 11.1494L9.87047 11.5543L6.52389 8.19691L6.51932 8.19367ZM11.8276 16.0859L4.37811 23.5556C3.85407 24.0858 3.08733 24.2945 2.36795 24.1024C1.64857 23.9104 1.08649 23.3471 0.894947 22.6258C0.703213 21.9045 0.910924 21.1354 1.43952 20.61L8.88898 13.1397L9.96311 12.9247C10.1297 12.8911 10.2815 12.8063 10.3974 12.6817C10.3974 12.6796 10.4019 12.6792 10.4036 12.6775C10.4194 12.6585 10.4333 12.6379 10.4451 12.6159C10.5324 12.5066 10.5927 12.3781 10.6209 12.241L10.7428 11.2827L11.6041 12.1368C11.6121 12.146 11.6149 12.1576 11.6237 12.166L12.7982 13.3451C12.8203 13.3636 12.8442 13.3796 12.8697 13.393L13.7078 14.2238L12.6947 14.3556C12.5488 14.3859 12.4138 14.4557 12.3042 14.5572C12.2997 14.5614 12.2934 14.5631 12.2888 14.5677V14.5701C12.1639 14.6874 12.0785 14.8406 12.044 15.0088L11.8276 16.0859ZM19.5218 19.9682L18.8384 21.559C18.7007 21.8671 18.7682 22.2283 19.0079 22.4652L20.7278 24.1419C19.5815 24.2083 18.4732 23.7185 17.7489 22.8251C17.0245 21.9319 16.7725 20.7441 17.0711 19.6325C17.1782 19.2135 17.0601 18.7689 16.759 18.4591L13.4092 15.1021L13.8417 15.0454C14.1421 14.9852 14.3852 14.7639 14.474 14.4698C14.5628 14.1757 14.4829 13.8566 14.2663 13.6392L13.6793 13.0506L14.1898 12.5385L18.4258 16.7858L18.4291 16.7891C18.7391 17.0891 19.1821 17.2062 19.5992 17.0983C20.8328 16.7719 22.1464 17.1232 23.0539 18.0225C23.7675 18.745 24.1531 19.7301 24.12 20.7465L22.421 19.0412C22.185 18.8059 21.8299 18.7382 21.5244 18.8703L19.9403 19.5449C19.7541 19.6302 19.6051 19.7807 19.5218 19.9682Z" fill="white"/>
<path d="M18.3594 23.0459C18.3054 23.0459 18.2617 23.0896 18.2617 23.1436C18.2617 23.1975 18.3054 23.2412 18.3594 23.2412C18.4133 23.2412 18.457 23.1975 18.457 23.1436C18.457 23.0896 18.4133 23.0459 18.3594 23.0459ZM18.3594 23.1924C18.3324 23.1924 18.3105 23.1705 18.3105 23.1436C18.3105 23.1166 18.3324 23.0947 18.3594 23.0947C18.3863 23.0947 18.4082 23.1166 18.4082 23.1436C18.4082 23.1705 18.3863 23.1924 18.3594 23.1924Z" fill="white"/>
</svg>
