<svg width="21" height="15" viewBox="0 0 21 15" fill="none" xmlns="http://www.w3.org/2000/svg">
<path d="M6.51929 11.9999H6.51837C6.19623 12.0007 5.93446 12.2694 5.93446 12.5998C5.93446 12.9305 6.19714 13.1997 6.5199 13.1997H17.1358C17.4592 13.1997 17.7213 13.4683 17.7213 13.7997C17.7213 14.1311 17.4592 14.3997 17.1358 14.3997H6.5199C5.55149 14.3997 4.76358 13.5922 4.76358 12.5998C4.76358 11.8612 5.20007 11.2254 5.82225 10.9482L3.70857 1.19998H0.665516C0.342153 1.19998 0.0800781 0.931388 0.0800781 0.599988C0.0800781 0.268588 0.342153 0 0.665516 0H4.17814C4.45257 0 4.6901 0.195309 4.74971 0.469834L5.16821 2.39995H19.4776C19.6613 2.39995 19.8343 2.48839 19.945 2.6387C20.0556 2.78901 20.0909 2.98369 20.0405 3.16478L17.6987 11.5646C17.6269 11.8221 17.3972 11.9998 17.1358 11.9998H6.52157L6.51929 11.9999Z" fill="#F2691C"/>
</svg>
