<svg width="20" height="20" viewBox="0 0 20 20" fill="none" xmlns="http://www.w3.org/2000/svg">
<g clip-path="url(#clip0_199_4898)">
<path d="M6.43921 13.9999H6.43829C6.11615 14.0007 5.85438 14.2694 5.85438 14.5998C5.85438 14.9305 6.11707 15.1997 6.43982 15.1997H17.0558C17.3791 15.1997 17.6412 15.4683 17.6412 15.7997C17.6412 16.1311 17.3791 16.3997 17.0558 16.3997H6.43982C5.47141 16.3997 4.6835 15.5922 4.6835 14.5998C4.6835 13.8612 5.11999 13.2254 5.74217 12.9482L3.6285 3.19998H0.585438C0.262075 3.19998 0 2.93139 0 2.59999C0 2.26859 0.262075 2 0.585438 2H4.09807C4.37249 2 4.61002 2.19531 4.66963 2.46983L5.08813 4.39995H19.3975C19.5812 4.39995 19.7543 4.48839 19.865 4.6387C19.9755 4.78901 20.0109 4.98369 19.9604 5.16478L17.6186 13.5646C17.5468 13.8221 17.3171 13.9998 17.0558 13.9998H6.4415L6.43921 13.9999Z" fill="#F2691C"/>
<path d="M5.85352 18.2004C5.85352 19.1928 6.64142 20.0003 7.60984 20.0003C8.57826 20.0003 9.36617 19.1928 9.36617 18.2004C9.36617 17.2079 8.57826 16.4004 7.60984 16.4004C6.64142 16.4004 5.85352 17.2079 5.85352 18.2004Z" fill="#F2691C"/>
<path d="M14.127 18.2004C14.127 19.1928 14.9148 20.0003 15.8832 20.0003C16.8516 20.0003 17.6395 19.1928 17.6395 18.2004C17.6395 17.2079 16.8516 16.4004 15.8832 16.4004C14.9148 16.4004 14.127 17.2079 14.127 18.2004Z" fill="#F2691C"/>
</g>
<defs>
<clipPath id="clip0_199_4898">
<rect width="20" height="20" fill="white"/>
</clipPath>
</defs>
</svg>
