<svg width="15" height="20" viewBox="0 0 15 20" fill="none" xmlns="http://www.w3.org/2000/svg">
<path d="M1.03534 7.23536C1.03534 3.7945 3.93824 0.994026 7.5 0.994026C11.0667 0.994026 13.9696 3.7945 13.9696 7.23536C13.9696 10.2413 9.00594 17.7826 7.5 20C5.99406 17.7826 1.03534 10.2413 1.03534 7.23536Z" fill="#F2691C"/>
<path d="M10.7654 7.23528C10.7654 5.49573 9.30403 4.08594 7.50086 4.08594C5.69769 4.08594 4.23633 5.49573 4.23633 7.23528C4.23633 8.97483 5.69769 10.3846 7.50086 10.3846C9.30403 10.3846 10.7654 8.97483 10.7654 7.23528ZM5.26671 7.23528C5.26671 6.04532 6.26737 5.07996 7.50086 5.07996C8.73435 5.07996 9.73501 6.04532 9.73501 7.23528C9.73501 8.42524 8.73435 9.3906 7.50086 9.3906C6.26737 9.3906 5.26671 8.42524 5.26671 7.23528Z" fill="white"/>
</svg>
