<svg width="17" height="17" viewBox="0 0 17 17" fill="none" xmlns="http://www.w3.org/2000/svg">
<mask id="path-1-inside-1_199_4657" fill="white">
<path d="M14.7563 10.7658C13.774 10.7658 12.8096 10.6087 11.8956 10.3C11.44 10.1411 10.9212 10.2644 10.6239 10.5741L8.81997 11.9662C6.72791 10.8246 5.43924 9.50757 4.33775 7.38488L5.65947 5.58873C6.00286 5.23815 6.12603 4.72602 5.97846 4.24551C5.67514 3.30625 5.52105 2.32075 5.52105 1.31615C5.52109 0.590416 4.94356 0 4.23372 0H1.28733C0.577528 0 0 0.590416 0 1.31606C0 9.63438 6.61958 16.4016 14.7563 16.4016C15.4661 16.4016 16.0437 15.8112 16.0437 15.0855V12.0819C16.0436 11.3562 15.4661 10.7658 14.7563 10.7658Z"/>
</mask>
<path d="M14.7563 10.7658C13.774 10.7658 12.8096 10.6087 11.8956 10.3C11.44 10.1411 10.9212 10.2644 10.6239 10.5741L8.81997 11.9662C6.72791 10.8246 5.43924 9.50757 4.33775 7.38488L5.65947 5.58873C6.00286 5.23815 6.12603 4.72602 5.97846 4.24551C5.67514 3.30625 5.52105 2.32075 5.52105 1.31615C5.52109 0.590416 4.94356 0 4.23372 0H1.28733C0.577528 0 0 0.590416 0 1.31606C0 9.63438 6.61958 16.4016 14.7563 16.4016C15.4661 16.4016 16.0437 15.8112 16.0437 15.0855V12.0819C16.0436 11.3562 15.4661 10.7658 14.7563 10.7658Z" fill="white"/>
<path d="M5.13028 4.52446L9.91293 3.0663L9.90077 3.0264L9.88794 2.98671L5.13028 4.52446ZM4.98927 4.99165L1.34544 1.56783L1.143 1.78329L0.967348 2.02111L4.98927 4.99165ZM3.45731 7.06582L-0.564609 4.09527L-0.566644 4.09803L3.45731 7.06582ZM5.89134 1.3161C5.89134 3.74958 3.93379 5.91123 1.28737 5.91123V-4.08877C-1.79598 -4.08877 -4.10866 -1.56406 -4.10866 1.3161H5.89134ZM1.28737 5.91123H4.23376V-4.08877H1.28737V5.91123ZM4.23376 5.91123C1.58735 5.91123 -0.370206 3.74958 -0.370206 1.3161H9.62979C9.62979 -1.56406 7.3171 -4.08877 4.23376 -4.08877V5.91123ZM-0.370206 1.3161C-0.370206 2.93056 -0.122102 4.53159 0.372621 6.06221L9.88794 2.98671C9.72028 2.46798 9.62979 1.90579 9.62979 1.3161H-0.370206ZM0.347625 5.98262C0.105792 5.18942 0.0681723 4.28128 0.326041 3.37986C0.571166 2.52299 1.00957 1.92529 1.34544 1.56783L8.6331 8.41547C9.73775 7.23984 10.5879 5.28019 9.91293 3.0663L0.347625 5.98262ZM0.967348 2.02111L-0.564608 4.09527L7.47924 10.0364L9.01119 7.9622L0.967348 2.02111ZM-0.566644 4.09803C-1.7857 5.75093 -1.97033 7.9415 -1.06336 9.76926L7.89443 5.32426C8.64731 6.84151 8.49494 8.6592 7.48127 10.0336L-0.566644 4.09803ZM14.7563 16.677C12.4456 16.677 11.145 15.1981 10.7328 14.6318C10.2883 14.021 10.0988 13.4606 10.0385 13.2755C9.89777 12.8439 9.86079 12.5099 9.85769 12.4851C9.84061 12.3486 9.84581 12.3166 9.85 12.4845C9.85702 12.7667 9.85296 13.2157 9.8397 13.757C9.82692 14.279 9.80752 14.8158 9.79077 15.2465C9.78225 15.4658 9.77509 15.6407 9.76914 15.7912C9.76658 15.8561 9.75628 16.093 9.75628 16.2493H19.7563C19.7563 16.3229 19.7608 16.2124 19.7832 15.6349C19.8006 15.1874 19.8222 14.595 19.8367 14.0018C19.8508 13.428 19.8603 12.7758 19.8469 12.2356C19.8408 11.9923 19.8273 11.6188 19.7803 11.2435C19.7623 11.0994 19.7076 10.6718 19.5461 10.1763C19.4754 9.95936 19.2747 9.37452 18.8182 8.74726C18.394 8.16446 17.0806 6.67703 14.7563 6.67703V16.677ZM11.8956 10.3L8.60378 19.7426L8.64927 19.7585L8.69492 19.7739L11.8956 10.3ZM10.6239 10.5741L16.7335 18.4907L17.3226 18.0361L17.8379 17.4992L10.6239 10.5741ZM8.81997 11.9662L4.02971 20.7442L9.76082 23.8718L14.9295 19.8829L8.81997 11.9662ZM4.33775 7.38488L-3.71658 1.45801L-7.40382 6.4688L-4.53836 11.9908L4.33775 7.38488ZM5.65947 5.58873L-1.48451 -1.40867L-1.97739 -0.905463L-2.39486 -0.338137L5.65947 5.58873ZM5.97846 4.24551L15.5378 1.3098L15.5167 1.24092L15.4945 1.17235L5.97846 4.24551ZM5.52105 1.31615L-4.47895 1.31557V1.31615H5.52105ZM16.0437 12.0819L26.0437 12.0819L26.0437 12.0813L16.0437 12.0819ZM14.7563 0.765798C14.8424 0.765798 14.9603 0.780066 15.0963 0.826037L8.69492 19.7739C10.6589 20.4374 12.7057 20.7658 14.7563 20.7658V0.765798ZM15.1875 0.857319C11.2936 -0.500156 6.5975 0.328333 3.40989 3.64891L17.8379 17.4992C15.2449 20.2005 11.5864 20.7824 8.60378 19.7426L15.1875 0.857319ZM4.51435 2.65743L2.7104 4.0496L14.9295 19.8829L16.7335 18.4907L4.51435 2.65743ZM13.6102 3.18823C13.4179 3.08327 13.3301 3.02124 13.3083 3.00518C13.2916 2.99297 13.3155 3.00936 13.3553 3.05003C13.395 3.09063 13.4098 3.11378 13.3963 3.09442C13.3789 3.0697 13.3169 2.97746 13.2139 2.77894L-4.53836 11.9908C-2.52344 15.8738 0.185048 18.6462 4.02971 20.7442L13.6102 3.18823ZM12.3921 13.3118L13.7138 11.5156L-2.39486 -0.338137L-3.71658 1.45801L12.3921 13.3118ZM12.8034 12.5861C15.7609 9.56669 16.7404 5.22557 15.5378 1.3098L-3.58091 7.18121C-4.48832 4.22648 -3.75521 0.909602 -1.48451 -1.40867L12.8034 12.5861ZM15.4945 1.17235C15.517 1.24182 15.5211 1.29418 15.5211 1.31615H-4.47895C-4.47895 3.34731 -4.1667 5.37069 -3.53762 7.31866L15.4945 1.17235ZM15.5211 1.31672C15.5214 -4.72299 10.6734 -10 4.23372 -10V10C-0.786306 10 -4.47921 5.90382 -4.47895 1.31557L15.5211 1.31672ZM4.23372 -10H1.28733V10H4.23372V-10ZM1.28733 -10C-5.15224 -10 -10 -4.72322 -10 1.31606H10C10 5.90405 6.30729 10 1.28733 10V-10ZM-10 1.31606C-10 14.948 0.889834 26.4016 14.7563 26.4016V6.40164C12.3493 6.40164 10 4.32073 10 1.31606H-10ZM14.7563 26.4016C21.1959 26.4016 26.0437 21.1249 26.0437 15.0855H6.04365C6.04365 10.4976 9.73636 6.40164 14.7563 6.40164V26.4016ZM26.0437 15.0855V12.0819H6.04365V15.0855H26.0437ZM26.0437 12.0813C26.0433 6.04256 21.1959 0.765798 14.7563 0.765798V20.7658C9.73622 20.7658 6.04392 16.6699 6.04365 12.0824L26.0437 12.0813Z" fill="#F2691C" mask="url(#path-1-inside-1_199_4657)"/>
</svg>
