<svg width="23" height="22" viewBox="0 0 23 22" fill="none" xmlns="http://www.w3.org/2000/svg">
<path d="M22.2188 20.4353L15.9678 14.179C17.1787 12.6821 17.9077 10.78 17.9077 8.70837C17.9077 3.90686 14.0042 0 9.20675 0C4.40934 0 0.505859 3.90682 0.505859 8.70833C0.505859 13.5098 4.40938 17.4167 9.2068 17.4167C11.2767 17.4167 13.1772 16.687 14.6728 15.4752L20.9237 21.7315C21.1023 21.9102 21.3368 22.0001 21.5713 22.0001C21.8058 22.0001 22.0402 21.9102 22.2188 21.7315C22.5769 21.3731 22.5769 20.7937 22.2188 20.4353ZM9.2068 15.5834C5.41868 15.5834 2.33765 12.4997 2.33765 8.70833C2.33765 4.91697 5.41868 1.83331 9.2068 1.83331C12.9949 1.83331 16.0759 4.91697 16.0759 8.70833C16.0759 12.4997 12.9949 15.5834 9.2068 15.5834Z" fill="#999999"/>
</svg>
