<svg width="25" height="25" viewBox="0 0 25 25" fill="none" xmlns="http://www.w3.org/2000/svg">
<path d="M15.6934 0.426385C10.8228 -0.881737 5.64575 0.879842 2.57623 4.89002C-0.493297 8.9 -0.850926 14.3687 1.67036 18.7462C3.31659 21.6223 6.04219 23.719 9.23973 24.5689C10.2987 24.8541 11.3903 24.999 12.4869 25C16.9377 24.991 21.0464 22.6051 23.2683 18.7391C25.49 14.8731 25.4879 10.1132 23.2628 6.24924C21.6166 3.3729 18.891 1.27628 15.6934 0.426385ZM23.7058 15.5165C22.4876 20.0732 18.6513 23.4455 13.9854 24.0614C9.31963 24.6772 4.74312 22.4148 2.38999 18.3295C0.315934 14.7229 0.315364 10.2819 2.38809 6.67467C4.46101 3.06742 8.29373 0.839988 12.4466 0.828737C13.47 0.8295 14.4889 0.964889 15.4773 1.23128C18.4582 2.03179 20.9996 3.98653 22.5428 6.66551C24.0859 9.34468 24.504 12.5284 23.7053 15.5165H23.7058Z" fill="white"/>
<path d="M17.5489 18.8351C17.5548 18.8313 17.5616 18.8309 17.5677 18.8273C17.5776 18.8181 17.587 18.8086 17.5958 18.7986C19.8081 17.0284 20.8989 14.2543 20.4663 11.4981C20.4663 11.4931 20.4634 11.489 20.4634 11.4844C20.1667 9.56657 19.1435 7.82627 17.5954 6.606C17.5847 6.59726 17.5788 6.58529 17.5673 6.5773C17.5626 6.57445 17.5569 6.57407 17.5523 6.57122C15.3085 4.8121 12.2752 4.3432 9.58224 5.33917C9.57794 5.34126 9.57326 5.33917 9.56858 5.3426L9.56311 5.34678C8.77081 5.63036 8.03434 6.04396 7.38531 6.56951C7.37946 6.57331 7.37263 6.57369 7.36658 6.5773C7.35682 6.58643 7.34725 6.59593 7.33847 6.606C5.12632 8.37615 4.03576 11.1504 4.46831 13.9065C4.46831 13.9114 4.47124 13.9156 4.47124 13.9202C4.89716 16.7146 6.83311 19.0702 9.53969 20.0874C12.2463 21.1045 15.3054 20.6263 17.5489 18.8351ZM14.1533 14.6272C14.1414 14.6337 14.1297 14.6407 14.1184 14.6483L13.7543 14.8561L13.0089 15.2754C12.8933 15.3423 12.8176 15.459 12.8051 15.5894C12.5279 15.6177 12.2478 15.6088 11.9732 15.5628C11.9111 15.3613 11.7729 15.1904 11.5865 15.0844L10.7899 14.6364C10.6014 14.5318 10.379 14.501 10.1682 14.5505C10.0612 14.4273 9.96521 14.2954 9.88128 14.1564C9.80047 14.0175 9.73195 13.8719 9.67652 13.7217C9.82643 13.5676 9.90978 13.3631 9.909 13.1508V12.2538C9.90939 12.0424 9.82623 11.8391 9.67691 11.6859C9.77392 11.4333 9.90626 11.1949 10.07 10.9775C10.1916 11.0349 10.3345 11.0288 10.4505 10.9613L10.7665 10.7832C10.7712 10.7806 10.7766 10.7802 10.7813 10.7773C10.7934 10.7709 10.8051 10.7638 10.8163 10.7562L11.1805 10.5485L11.9258 10.1292C12.0413 10.0623 12.117 9.94557 12.1297 9.81518C12.4057 9.78686 12.6845 9.79561 12.9581 9.84103C13.0214 10.0431 13.1611 10.2141 13.3491 10.3193L14.1432 10.7686C14.3323 10.8745 14.5562 10.9056 14.7684 10.8558C14.8744 10.9788 14.9696 11.11 15.0536 11.2481C15.1344 11.3871 15.2029 11.5327 15.2583 11.6828C15.1082 11.837 15.0251 12.0415 15.0258 12.2538V13.1508C15.0255 13.3621 15.1084 13.5655 15.2577 13.7187C15.1605 13.9717 15.028 14.2102 14.8638 14.4279C14.742 14.3737 14.6009 14.3794 14.4844 14.4432L14.173 14.6189C14.1666 14.6223 14.1598 14.624 14.1533 14.6272ZM8.22622 18.3517L10.3638 15.3543L11.1604 15.8019L9.56311 19.1017L8.22622 18.3517ZM5.27135 11.9449L9.05599 12.2538V13.1525L5.26666 13.46C5.2122 12.9563 5.21357 12.4484 5.27076 11.9449H5.27135ZM16.7418 7.00383L14.5697 10.0499L13.7731 9.60192L15.3959 6.25057C15.8714 6.45433 16.3229 6.7075 16.7426 7.00554L16.7418 7.00383ZM19.6631 13.4579L15.8787 13.1508V12.2521L19.6682 11.9446C19.7226 12.4483 19.7213 12.9561 19.6639 13.4596L19.6631 13.4579ZM17.4014 17.8664L15.4157 15.0844C15.6907 14.7611 15.9079 14.3952 16.0586 14.0019L19.521 14.2834C19.1981 15.6572 18.4599 16.9053 17.4014 17.8664ZM18.7455 9.17293C19.1062 9.78154 19.3715 10.4394 19.5321 11.1244L16.059 11.4065C15.9876 11.2084 15.8988 11.0168 15.7934 10.8338C15.6831 10.6523 15.5574 10.4802 15.4172 10.3193L17.4047 7.53736C17.9329 8.01444 18.3848 8.56584 18.7455 9.17293ZM12.4549 5.64348C13.1805 5.64481 13.9017 5.75144 14.5947 5.95995L13.11 9.026C12.6841 8.95454 12.249 8.95321 11.8227 9.0222L10.3382 5.95615C11.024 5.74992 11.7374 5.64462 12.4549 5.64348ZM8.84284 6.58909C9.0677 6.46383 9.2994 6.35074 9.53656 6.24981L11.1571 9.60306L10.7481 9.83438L10.3644 10.0495L8.18972 7.00383C8.39955 6.85424 8.61778 6.71587 8.84284 6.58909ZM7.53347 7.53812L9.5188 10.3223C9.24397 10.6456 9.02691 11.0115 8.87622 11.4048L5.41365 11.1233C5.73611 9.74866 6.47453 8.49988 7.53347 7.53812ZM6.18935 16.2316C5.82844 15.623 5.56336 14.9652 5.40252 14.2802L8.87563 13.9981C8.94785 14.1958 9.03745 14.387 9.14344 14.5695C9.25333 14.7504 9.37885 14.922 9.51841 15.0823L7.53074 17.8689C7.00234 17.3913 6.55007 16.8395 6.18935 16.2316ZM10.3417 19.4397L11.8239 16.377C12.0405 16.4156 12.2603 16.4362 12.4805 16.4384C12.6923 16.4363 12.9037 16.4173 13.1122 16.381L14.5952 19.4446C13.2088 19.8578 11.727 19.8561 10.3417 19.4397ZM15.3989 19.1568L13.7786 15.8015L14.1875 15.5702L14.5712 15.355L16.7459 18.4007C16.3278 18.7003 15.8769 18.954 15.4016 19.1568H15.3989Z" fill="white"/>
<path d="M12.7004 11.0248C11.894 10.8082 11.0475 11.193 10.6784 11.9437C10.3094 12.6944 10.5207 13.602 11.183 14.1113C11.8454 14.6207 12.7742 14.59 13.4018 14.0381C14.0291 13.486 14.1802 12.5665 13.7628 11.8417C13.5319 11.438 13.1493 11.1437 12.7004 11.0248ZM13.094 12.9461C12.9765 13.3852 12.544 13.6616 12.0975 13.5829C11.651 13.504 11.3384 13.0963 11.3774 12.6434C11.4165 12.1904 11.7941 11.8425 12.2476 11.8417C12.3245 11.8419 12.4012 11.8522 12.4755 11.872C12.6996 11.9323 12.8908 12.0794 13.0067 12.2808C13.1226 12.4823 13.1541 12.7219 13.094 12.9465V12.9461Z" fill="white"/>
</svg>
