<svg width="17" height="18" viewBox="0 0 17 18" fill="none" xmlns="http://www.w3.org/2000/svg">
<path d="M8.03902 8.67062C9.30707 8.67062 10.405 8.2434 11.3023 7.40048C12.1993 6.55769 12.6542 5.5265 12.6542 4.33517C12.6542 3.14426 12.1994 2.11293 11.3021 1.26987C10.4048 0.427228 9.30692 0 8.03902 0C6.77083 0 5.6731 0.427228 4.77593 1.27001C3.87877 2.11279 3.42383 3.14413 3.42383 4.33517C3.42383 5.5265 3.87877 6.55783 4.77593 7.40061C5.67339 8.24326 6.77127 8.67062 8.03902 8.67062Z" fill="#F2691C"/>
<path d="M15.9564 12.7043C16.0334 13.1084 16.0858 13.491 16.1117 13.8417C16.1372 14.1845 16.1503 14.5422 16.1504 14.9049C16.1504 15.8448 15.8324 16.6057 15.2053 17.1663C14.5859 17.7198 13.7666 18.0005 12.7704 18.0005H3.5441C2.54753 18.0005 1.72828 17.7198 1.10903 17.1663C0.482023 16.6053 0.164062 15.8446 0.164062 14.905C0.164062 14.5436 0.176927 14.1858 0.202364 13.8421C0.228239 13.4905 0.280429 13.1078 0.357617 12.7043C0.435389 12.2973 0.535528 11.9126 0.655257 11.5609C0.779225 11.1972 0.947635 10.8383 1.15566 10.4943C1.37144 10.1374 1.62522 9.82662 1.91 9.57064C2.20808 9.30272 2.57282 9.08752 2.99413 8.93083C3.41413 8.77455 3.8796 8.69531 4.37781 8.69531C4.57341 8.69531 4.76258 8.77071 5.12761 8.99414C5.35581 9.1338 5.61895 9.2931 5.90972 9.46765C6.16029 9.61788 6.50047 9.75864 6.92003 9.88595C7.33009 10.0105 7.74615 10.0737 8.15665 10.0737C8.56744 10.0737 8.98349 10.0105 9.39326 9.88595C9.81326 9.75851 10.1533 9.61775 10.4043 9.46751C10.6978 9.29132 10.9608 9.13202 11.1857 8.99428C11.551 8.77084 11.7402 8.69545 11.9358 8.69545C12.4338 8.69545 12.8995 8.77455 13.3196 8.93069C13.7412 9.08766 14.1058 9.30285 14.4036 9.57051C14.6884 9.82635 14.9421 10.1373 15.1581 10.4943C15.3664 10.8383 15.5347 11.1973 15.6586 11.5608C15.7785 11.9125 15.8786 12.2973 15.9564 12.7043Z" fill="#F2691C"/>
</svg>
