<svg width="18" height="18" viewBox="0 0 18 18" fill="none" xmlns="http://www.w3.org/2000/svg">
<path d="M0.423523 6.89127L1.80698 6.59308C1.92728 6.22791 2.07628 5.87171 2.2522 5.52859L1.48631 4.34742C1.34953 4.13637 1.37961 3.85929 1.55841 3.68201L3.71365 1.54513C3.89246 1.36785 4.17192 1.33803 4.38478 1.47365L5.57611 2.233C5.92218 2.05859 6.28143 1.91085 6.64975 1.79158L6.9505 0.419914C7.0042 0.174828 7.2231 0 7.47606 0H10.5239C10.7769 0 10.9958 0.174828 11.0495 0.419914L11.3503 1.79158C11.7186 1.91085 12.0778 2.05859 12.4239 2.233L13.6152 1.47365C13.8281 1.33803 14.1075 1.36785 14.2863 1.54513L16.4416 3.68201C16.6204 3.85929 16.6505 4.13637 16.5137 4.34742L15.7478 5.52859C15.9237 5.87171 16.0727 6.22791 16.193 6.59308L17.5765 6.89127C17.8237 6.94465 18 7.16155 18 7.41235V10.4343C18 10.6851 17.8237 10.902 17.5765 10.9553L16.193 11.2535C16.0727 11.6187 15.9237 11.9749 15.7478 12.318L16.5137 13.4992C16.6505 13.7102 16.6204 13.9873 16.4416 14.1646L14.2863 16.3015C14.1075 16.4788 13.8281 16.5086 13.6152 16.373L12.4239 15.6136C12.0778 15.788 11.7186 15.9358 11.3503 16.055L11.0495 17.4267C10.9958 17.6718 10.7769 17.8466 10.5239 17.8466H7.47606C7.2231 17.8466 7.0042 17.6718 6.9505 17.4267L6.64975 16.055C6.28143 15.9358 5.92218 15.788 5.57611 15.6136L4.38478 16.373C4.17192 16.5086 3.89246 16.4789 3.71365 16.3015L1.55841 14.1646C1.37961 13.9873 1.34953 13.7102 1.48631 13.4992L2.2522 12.318C2.07628 11.9749 1.92728 11.6187 1.80698 11.2535L0.423523 10.9553C0.176331 10.902 0 10.6851 0 10.4343V7.41235C0 7.16155 0.176331 6.94465 0.423523 6.89127ZM5.7729 8.92331C5.7729 10.6875 7.22063 12.1229 9 12.1229C10.7794 12.1229 12.2271 10.6875 12.2271 8.92331C12.2271 7.1591 10.7794 5.72371 9 5.72371C7.22063 5.72371 5.7729 7.1591 5.7729 8.92331Z" fill="#F2691C"/>
</svg>
