<svg width="35" height="35" viewBox="0 0 35 35" fill="none" xmlns="http://www.w3.org/2000/svg">
<path fill-rule="evenodd" clip-rule="evenodd" d="M27.1746 35H6.85319C3.06833 35 0 31.844 0 27.95V7.049C0 3.155 3.06833 0 6.85319 0H27.1746C30.9594 0 34.0278 3.155 34.0278 7.049V27.95C34.0278 31.844 30.9594 35 27.1746 35Z" fill="#4267B2"/>
<path fill-rule="evenodd" clip-rule="evenodd" d="M18.3646 14.7496V13.3496V12.8496C18.3646 12.6486 18.4618 12.6486 18.559 12.4486C18.6563 12.3496 18.7535 12.2496 18.8507 12.2496C19.0451 12.1486 19.2396 12.1486 19.434 12.1486H20.7951V9.34961H18.559C17.2951 9.34961 16.3229 9.64861 15.8368 10.2496C15.2535 10.8496 15.059 11.7496 15.059 12.9486V14.6486H13.4062V17.5496H15.059V25.6486H18.3646V17.5496H20.6007L20.8924 14.7496H18.3646Z" fill="white"/>
</svg>
