<svg width="35" height="35" viewBox="0 0 35 35" fill="none" xmlns="http://www.w3.org/2000/svg">
<path fill-rule="evenodd" clip-rule="evenodd" d="M27.1915 35H6.85745C3.07024 35 0 31.844 0 27.95V7.049C0 3.155 3.07024 0 6.85745 0H27.1915C30.9787 0 34.0489 3.155 34.0489 7.049V27.95C34.0489 31.844 30.9787 35 27.1915 35Z" fill="#B3CDE2"/>
<path fill-rule="evenodd" clip-rule="evenodd" d="M23.7958 9.05139C20.6304 7.9222 15.4088 10.0049 12.1356 13.7026C12.0033 13.8517 11.877 14.0014 11.7553 14.151L12.4826 13.9699C12.5068 13.9422 12.5305 13.9148 12.555 13.8864C14.3579 11.8472 16.6966 10.4173 18.9947 9.76318C19.5482 9.59977 20.0963 9.49119 20.6303 9.44192C21.556 9.34697 22.4208 9.42007 23.1626 9.68559C23.6714 9.86715 24.0885 10.1271 24.4151 10.4506C25.494 11.385 25.9586 12.8828 25.6721 14.5498C24.9427 17.8643 23.0944 19.967 20.2277 22.4909C24.9193 20.336 29.1758 11.4589 23.7958 9.05137L23.7958 9.05139ZM27.0251 7.21462C30.5216 9.85708 29.5058 16.7849 24.7654 22.6852C21.2913 27.0155 16.7714 29.5906 13.2297 29.6098H13.2111C11.9346 29.6135 10.7856 29.2843 9.85967 28.5847C6.64653 26.1534 7.24082 20.0957 11.0482 14.5479H11.8499C8.14599 19.7343 7.55466 25.1259 10.6745 27.482C13.7946 29.8374 20.1036 27.7803 24.4639 22.3572C27.0762 19.1062 28.2412 15.5152 28.2412 12.6369C28.2412 11.9402 28.1582 11.2841 27.9855 10.6829C27.6884 9.63264 27.1425 8.75755 26.3201 8.13898C25.7603 7.71415 25.1108 7.43817 24.3923 7.30046C22.2568 6.7575 19.4237 7.15996 16.7079 8.55096C11.2694 11.2686 8.64352 15.7451 5.83789 21.0355C7.59306 14.9481 13.1804 7.91543 19.9685 6.34777C22.2378 5.82402 25.0649 5.7333 27.0251 7.21463L27.0251 7.21462Z" fill="#809BBF"/>
<path fill-rule="evenodd" clip-rule="evenodd" d="M7.17383 10.9315L7.5987 9.60022L8.42977 8.42865L9.53138 7.49477L10.5362 6.77991L11.4638 6.52168L12.3719 6.34277L13.7246 8.11067L12.7777 8.32919L11.4445 8.80551L10.5941 9.44143L9.6472 10.2363L8.71964 11.7454L8.50708 12.9974L7.17383 10.9315Z" fill="white"/>
<path fill-rule="evenodd" clip-rule="evenodd" d="M7.17383 10.9332L7.5987 9.60189L8.42977 8.43032L9.18895 7.78711L10.4422 9.57089L9.6472 10.2379L8.71964 11.7471L8.50708 12.999L7.17383 10.9332Z" fill="#B4BCCE"/>
<path fill-rule="evenodd" clip-rule="evenodd" d="M7.98685 6.58182L7.02065 8.01203L6.5955 9.00525L6.57617 9.85928L7.00132 10.8922L7.25252 10.634L7.58104 9.52171L8.68253 8.23054L9.62942 7.39665L10.4604 6.87966L11.4847 6.50236L12.3735 6.48238L11.6391 5.37012L10.1125 5.42985L8.74049 6.04522L7.98685 6.58182Z" fill="#F2A4A3"/>
<path fill-rule="evenodd" clip-rule="evenodd" d="M10.3803 9.64062L9.60747 10.3751L9.02761 11.1106L8.69909 11.8651L8.50586 12.4811V13.1562L12.4288 18.4799L13.82 20.0886H14.1679L14.5545 19.5526L14.9988 18.7381L15.2114 18.0624V17.3873L15.0956 16.275L14.825 15.7184L10.3803 9.64062Z" fill="#78ABCE"/>
<path fill-rule="evenodd" clip-rule="evenodd" d="M13.8483 8.27832L13.1779 8.29844L12.1282 8.53841L11.1564 8.94813L10.6318 9.40846L10.418 9.63888L15.0603 16.1154L15.7239 16.4503L17.2009 16.6902L18.3961 16.5105L18.9015 16.2404L19.2709 15.8002L19.0182 15.01L13.8483 8.27832Z" fill="#B3CDE2"/>
<path fill-rule="evenodd" clip-rule="evenodd" d="M15.0193 16.0662C15.6173 16.4699 16.3332 16.7041 17.1021 16.7041C17.8981 16.7041 18.6367 16.4526 19.2473 16.0225L20.282 22.843L14.0879 20.1836C14.7986 19.4738 15.2408 18.481 15.2408 17.382C15.2408 16.9202 15.1623 16.4778 15.0193 16.0662L15.0193 16.0662Z" fill="#FED99E"/>
<path d="M17.1029 16.5381V16.869L17.028 16.8683L16.9535 16.8662L16.8792 16.8626L16.8053 16.8577L16.7318 16.8514L16.6587 16.8437L16.5859 16.8347L16.5135 16.8243L16.4416 16.8126L16.3701 16.7996L16.299 16.7852L16.2284 16.7696L16.1583 16.7527L16.0886 16.7345L16.0195 16.715L15.9508 16.6943L15.8827 16.6724L15.8151 16.6493L15.748 16.6249L15.6815 16.5994L15.6156 16.5726L15.5502 16.5447L15.4855 16.5157L15.4214 16.4854L15.3579 16.4541L15.295 16.4216L15.2328 16.388L15.1712 16.3534L15.1104 16.3176L15.0501 16.2808L14.9906 16.2429L14.9318 16.2039L15.1086 15.9273L15.1626 15.9631L15.2172 15.9979L15.2725 16.0317L15.3284 16.0646L15.385 16.0964L15.4421 16.1273L15.4998 16.1571L15.5581 16.1859L15.617 16.2136L15.6765 16.2403L15.7365 16.2659L15.797 16.2904L15.858 16.3139L15.9196 16.3363L15.9816 16.3575L16.0442 16.3776L16.1072 16.3966L16.1708 16.4145L16.2347 16.4312L16.2991 16.4467L16.3639 16.4611L16.4292 16.4743L16.4949 16.4862L16.561 16.497L16.6274 16.5065L16.6943 16.5148L16.7615 16.5219L16.8291 16.5277L16.8971 16.5322L16.9654 16.5355L17.034 16.5374L17.1029 16.5381L17.1029 16.5381ZM17.1029 16.869V16.5381L17.1112 16.5383L17.1194 16.5389L17.1275 16.54L17.1354 16.5414L17.1432 16.5433L17.1508 16.5455L17.1583 16.5481L17.1656 16.5511L17.1727 16.5544L17.1797 16.558L17.1864 16.562L17.1929 16.5663L17.1992 16.5709L17.2053 16.5759L17.2112 16.5811L17.2168 16.5865L17.2221 16.5923L17.2272 16.5983L17.2319 16.6045L17.2364 16.611L17.2406 16.6177L17.2445 16.6247L17.248 16.6318L17.2513 16.6391L17.2541 16.6466L17.2567 16.6543L17.2588 16.6622L17.2606 16.6702L17.2621 16.6783L17.2631 16.6866L17.2637 16.695L17.2639 16.7035L17.2637 16.7121L17.2631 16.7204L17.2621 16.7287L17.2606 16.7369L17.2588 16.7449L17.2567 16.7527L17.2541 16.7604L17.2513 16.7679L17.248 16.7753L17.2445 16.7824L17.2406 16.7893L17.2364 16.796L17.2319 16.8025L17.2272 16.8088L17.2221 16.8148L17.2168 16.8205L17.2112 16.826L17.2053 16.8312L17.1992 16.8361L17.1929 16.8407L17.1864 16.845L17.1797 16.849L17.1727 16.8527L17.1656 16.856L17.1583 16.859L17.1508 16.8616L17.1432 16.8638L17.1354 16.8656L17.1275 16.8671L17.1194 16.8681L17.1112 16.8688L17.1029 16.869V16.869ZM19.4072 15.9964L19.0891 16.0474L19.3392 16.1584L19.2791 16.1999L19.2183 16.2403L19.1567 16.2795L19.0944 16.3177L19.0313 16.3547L18.9675 16.3905L18.9031 16.4251L18.8379 16.4586L18.7721 16.4908L18.7056 16.5219L18.6384 16.5517L18.5707 16.5803L18.5022 16.6076L18.4332 16.6337L18.3636 16.6584L18.2934 16.6819L18.2227 16.704L18.1513 16.7248L18.0795 16.7443L18.0071 16.7624L17.9343 16.7792L17.8609 16.7945L17.787 16.8085L17.7127 16.821L17.6379 16.8322L17.5627 16.8419L17.487 16.8501L17.411 16.8569L17.3345 16.8622L17.2577 16.866L17.1805 16.8682L17.1029 16.869V16.5381L17.1743 16.5374L17.2453 16.5352L17.316 16.5318L17.3863 16.5269L17.4562 16.5207L17.5257 16.5131L17.5948 16.5042L17.6635 16.494L17.7318 16.4825L17.7996 16.4696L17.867 16.4555L17.9339 16.4402L18.0004 16.4235L18.0663 16.4056L18.1318 16.3865L18.1968 16.3662L18.2612 16.3447L18.3251 16.3219L18.3885 16.298L18.4513 16.2729L18.5135 16.2467L18.5752 16.2193L18.6362 16.1908L18.6967 16.1612L18.7566 16.1305L18.8158 16.0986L18.8744 16.0657L18.9323 16.0318L18.9895 15.9967L19.0461 15.9607L19.102 15.9236L19.1572 15.8854L19.4072 15.9964V15.9964ZM19.3392 16.1584L19.1572 15.8854L19.1642 15.8808L19.1712 15.8766L19.1785 15.8728L19.1858 15.8694L19.1933 15.8663L19.2008 15.8638L19.2084 15.8615L19.216 15.8598L19.2237 15.8583L19.2315 15.8573L19.2392 15.8567L19.247 15.8564L19.2547 15.8566L19.2624 15.8571L19.2701 15.858L19.2777 15.8593L19.2853 15.8609L19.2928 15.8629L19.3002 15.8653L19.3074 15.8681L19.3146 15.8712L19.3216 15.8746L19.3284 15.8784L19.3351 15.8826L19.3416 15.8871L19.3479 15.892L19.3541 15.8972L19.36 15.9028L19.3656 15.9087L19.371 15.9149L19.3761 15.9215L19.381 15.9284L19.3855 15.9355L19.3896 15.9428L19.3933 15.9503L19.3966 15.9578L19.3995 15.9655L19.4021 15.9732L19.4042 15.981L19.406 15.9889L19.4073 15.9968L19.4083 16.0048L19.4089 16.0127L19.4092 16.0207L19.409 16.0287L19.4085 16.0366L19.4077 16.0445L19.4064 16.0523L19.4048 16.0601L19.4029 16.0678L19.4006 16.0754L19.3979 16.0828L19.3949 16.0902L19.3915 16.0974L19.3878 16.1044L19.3837 16.1113L19.3793 16.118L19.3746 16.1245L19.3695 16.1308L19.3641 16.1368L19.3584 16.1426L19.3523 16.1482L19.3459 16.1534L19.3392 16.1584ZM20.1238 22.868L19.0891 16.0474L19.4072 15.9964L20.4419 22.817L20.2208 22.9952L20.1238 22.868H20.1238ZM20.1238 22.868L20.4419 22.817L20.4429 22.8254L20.4436 22.8338L20.4438 22.8422L20.4436 22.8504L20.4431 22.8586L20.4421 22.8667L20.4407 22.8747L20.439 22.8826L20.4369 22.8903L20.4345 22.898L20.4317 22.9054L20.4286 22.9127L20.4251 22.9198L20.4213 22.9268L20.4172 22.9335L20.4128 22.94L20.4081 22.9463L20.4031 22.9524L20.3978 22.9582L20.3923 22.9638L20.3865 22.9691L20.3804 22.9741L20.3741 22.9788L20.3676 22.9832L20.3608 22.9873L20.3538 22.991L20.3466 22.9944L20.3392 22.9975L20.3316 23.0002L20.3238 23.0025L20.3158 23.0044L20.3076 23.006L20.2994 23.0071L20.2913 23.0077L20.2831 23.008L20.2751 23.0078L20.2671 23.0072L20.2592 23.0062L20.2515 23.0048L20.2438 23.003L20.2362 23.0009L20.2288 22.9984L20.2216 22.9955L20.2145 22.9923L20.2075 22.9887L20.2008 22.9848L20.1943 22.9806L20.1879 22.9761L20.1818 22.9713L20.1759 22.9661L20.1702 22.9607L20.1648 22.955L20.1597 22.949L20.1548 22.9428L20.1502 22.9363L20.1459 22.9296L20.142 22.9226L20.1383 22.9154L20.135 22.908L20.132 22.9004L20.1294 22.8926L20.1271 22.8846L20.1253 22.8763L20.1238 22.868ZM14.1508 20.0304L20.3449 22.6898L20.2208 22.9952L14.0267 20.3358L13.9766 20.0644L14.1508 20.0304L14.1508 20.0304ZM14.1508 20.0304L14.0267 20.3358L14.0192 20.3323L14.0119 20.3284L14.0048 20.3243L13.998 20.3198L13.9915 20.315L13.9853 20.3099L13.9794 20.3046L13.9738 20.2989L13.9684 20.2931L13.9634 20.2869L13.9587 20.2806L13.9543 20.274L13.9502 20.2673L13.9464 20.2603L13.943 20.2532L13.9399 20.2459L13.9371 20.2385L13.9347 20.231L13.9326 20.2233L13.9309 20.2156L13.9295 20.2077L13.9286 20.1998L13.928 20.1918L13.9277 20.1837L13.9279 20.1757L13.9284 20.1676L13.9294 20.1595L13.9307 20.1514L13.9325 20.1433L13.9346 20.1352L13.9372 20.1272L13.9402 20.1193L13.9436 20.1115L13.9473 20.104L13.9514 20.0968L13.9557 20.0898L13.9604 20.0832L13.9653 20.0768L13.9706 20.0707L13.976 20.0649L13.9817 20.0594L13.9877 20.0542L13.9939 20.0494L14.0003 20.0448L14.0068 20.0406L14.0136 20.0367L14.0205 20.0332L14.0276 20.03L14.0348 20.0272L14.0421 20.0247L14.0496 20.0226L14.0571 20.0208L14.0648 20.0194L14.0725 20.0184L14.0803 20.0178L14.0881 20.0176L14.096 20.0177L14.1038 20.0183L14.1117 20.0193L14.1196 20.0206L14.1274 20.0224L14.1353 20.0246L14.143 20.0273L14.1508 20.0304V20.0304ZM15.0806 17.3814H15.4026L15.4012 17.4884L15.3972 17.5947L15.3906 17.7004L15.3814 17.8053L15.3695 17.9094L15.3552 18.0127L15.3383 18.1152L15.319 18.2168L15.2973 18.3175L15.2731 18.4173L15.2465 18.516L15.2177 18.6138L15.1865 18.7105L15.1531 18.806L15.1174 18.9005L15.0795 18.9938L15.0394 19.0859L14.9972 19.1768L14.953 19.2665L14.9066 19.3548L14.8582 19.4418L14.8078 19.5275L14.7554 19.6117L14.7011 19.6945L14.6449 19.7759L14.5868 19.8558L14.5269 19.9341L14.4652 20.0109L14.4017 20.0861L14.3364 20.1597L14.2695 20.2315L14.2009 20.3017L13.9766 20.0644L14.0396 19.9999L14.1012 19.9337L14.1612 19.8661L14.2195 19.797L14.2762 19.7264L14.3313 19.6544L14.3847 19.581L14.4364 19.5063L14.4863 19.4301L14.5344 19.3527L14.5807 19.2741L14.6251 19.1941L14.6677 19.113L14.7084 19.0306L14.7472 18.9472L14.7839 18.8626L14.8187 18.7769L14.8515 18.6901L14.8822 18.6024L14.9108 18.5136L14.9373 18.4239L14.9617 18.3332L14.9839 18.2417L15.0038 18.1492L15.0216 18.0559L15.0371 17.9618L15.0503 17.8669L15.0611 17.7712L15.0696 17.6748L15.0757 17.5777L15.0794 17.4799L15.0806 17.3814L15.0806 17.3814ZM15.4026 17.3814H15.0806L15.0808 17.3729L15.0815 17.3645L15.0825 17.3562L15.0839 17.3481L15.0857 17.3401L15.0879 17.3322L15.0904 17.3245L15.0933 17.317L15.0965 17.3097L15.1001 17.3026L15.104 17.2956L15.1081 17.2889L15.1126 17.2824L15.1174 17.2762L15.1225 17.2702L15.1278 17.2644L15.1334 17.2589L15.1392 17.2537L15.1453 17.2488L15.1516 17.2442L15.1581 17.2399L15.1649 17.2359L15.1718 17.2323L15.179 17.229L15.1863 17.226L15.1938 17.2234L15.2014 17.2212L15.2092 17.2193L15.2171 17.2179L15.2252 17.2168L15.2333 17.2162L15.2416 17.216L15.2499 17.2162L15.2581 17.2168L15.2661 17.2179L15.2741 17.2193L15.2818 17.2212L15.2895 17.2234L15.297 17.226L15.3043 17.229L15.3114 17.2323L15.3183 17.2359L15.3251 17.2399L15.3316 17.2442L15.3379 17.2488L15.344 17.2537L15.3499 17.2589L15.3554 17.2644L15.3608 17.2702L15.3658 17.2762L15.3706 17.2824L15.3751 17.2889L15.3793 17.2956L15.3832 17.3026L15.3867 17.3097L15.3899 17.317L15.3928 17.3245L15.3953 17.3322L15.3975 17.3401L15.3993 17.3481L15.4007 17.3562L15.4018 17.3645L15.4024 17.3729L15.4026 17.3814H15.4026ZM15.1086 15.9273L14.9318 16.2039L15.1718 16.01L15.1855 16.0503L15.1989 16.0908L15.2119 16.1315L15.2245 16.1723L15.2366 16.2133L15.2484 16.2546L15.2598 16.296L15.2707 16.3375L15.2813 16.3793L15.2913 16.4212L15.301 16.4633L15.3103 16.5056L15.3191 16.548L15.3275 16.5905L15.3355 16.6333L15.3431 16.6762L15.3502 16.7191L15.3569 16.7624L15.3631 16.8057L15.3689 16.8492L15.3742 16.8928L15.3791 16.9366L15.3835 16.9804L15.3875 17.0245L15.391 17.0687L15.3941 17.113L15.3967 17.1574L15.3988 17.202L15.4004 17.2466L15.4016 17.2915L15.4024 17.3364L15.4026 17.3814H15.0806L15.0804 17.34L15.0798 17.2987L15.0787 17.2575L15.0771 17.2164L15.0752 17.1755L15.0728 17.1346L15.07 17.0939L15.0668 17.0533L15.0631 17.0129L15.059 16.9725L15.0546 16.9323L15.0496 16.8922L15.0443 16.8523L15.0386 16.8125L15.0325 16.7728L15.026 16.7333L15.019 16.6939L15.0117 16.6547L15.004 16.6155L14.9959 16.5766L14.9874 16.5378L14.9784 16.4992L14.9692 16.4606L14.9595 16.4223L14.9494 16.3841L14.939 16.3461L14.9282 16.3082L14.917 16.2705L14.9054 16.2329L14.8935 16.1956L14.8812 16.1583L14.8686 16.1213L15.1085 15.9273L15.1086 15.9273ZM15.1718 16.01L14.8686 16.1213L14.866 16.1132L14.8638 16.1051L14.8621 16.0969L14.8608 16.0888L14.8598 16.0806L14.8593 16.0725L14.8592 16.0643L14.8594 16.0563L14.8601 16.0482L14.8611 16.0403L14.8625 16.0324L14.8642 16.0246L14.8663 16.017L14.8688 16.0095L14.8716 16.0021L14.8747 15.9948L14.8782 15.9877L14.882 15.9808L14.8861 15.9741L14.8905 15.9675L14.8953 15.9612L14.9003 15.9551L14.9056 15.9493L14.9113 15.9437L14.9172 15.9384L14.9234 15.9334L14.9298 15.9286L14.9366 15.9242L14.9436 15.9201L14.9508 15.9163L14.9583 15.9129L14.966 15.9098L14.9739 15.9071L14.9818 15.9049L14.9897 15.9031L14.9977 15.9018L15.0056 15.9008L15.0135 15.9003L15.0214 15.9001L15.0293 15.9004L15.0371 15.901L15.0448 15.9021L15.0525 15.9035L15.06 15.9053L15.0675 15.9075L15.0748 15.91L15.082 15.9129L15.0891 15.9161L15.096 15.9197L15.1027 15.9236L15.1093 15.9278L15.1156 15.9324L15.1217 15.9372L15.1277 15.9424L15.1334 15.9479L15.1388 15.9537L15.144 15.9598L15.1488 15.9662L15.1535 15.9728L15.1578 15.9797L15.1618 15.9869L15.1654 15.9943L15.1688 16.002L15.1718 16.01H15.1718ZM15.0202 16.0656L15.1086 15.9273L15.0202 16.0656ZM15.1718 16.01L14.8686 16.1213L14.866 16.1132L14.8638 16.1051L14.8621 16.0969L14.8608 16.0888L14.8598 16.0806L14.8593 16.0725L14.8592 16.0643L14.8594 16.0563L14.8601 16.0482L14.8611 16.0403L14.8625 16.0324L14.8642 16.0246L14.8663 16.017L14.8688 16.0095L14.8716 16.0021L14.8747 15.9948L14.8782 15.9877L14.882 15.9808L14.8861 15.9741L14.8905 15.9675L14.8953 15.9612L14.9003 15.9551L14.9056 15.9493L14.9113 15.9437L14.9172 15.9384L14.9234 15.9334L14.9298 15.9286L14.9366 15.9242L14.9436 15.9201L14.9508 15.9163L14.9583 15.9129L14.966 15.9098L14.9739 15.9071L14.9818 15.9049L14.9897 15.9031L14.9977 15.9018L15.0056 15.9008L15.0135 15.9003L15.0214 15.9001L15.0293 15.9004L15.0371 15.901L15.0448 15.9021L15.0525 15.9035L15.06 15.9053L15.0675 15.9075L15.0748 15.91L15.082 15.9129L15.0891 15.9161L15.096 15.9197L15.1027 15.9236L15.1093 15.9278L15.1156 15.9324L15.1217 15.9372L15.1277 15.9424L15.1334 15.9479L15.1388 15.9537L15.144 15.9598L15.1488 15.9662L15.1535 15.9728L15.1578 15.9797L15.1618 15.9869L15.1654 15.9943L15.1688 16.002L15.1718 16.01H15.1718Z" fill="#26467C"/>
<path d="M12.6139 6.7472L12.7145 6.43283L12.7223 6.43569L12.7299 6.43893L12.7372 6.44251L12.7443 6.44645L12.7511 6.4507L12.7577 6.45527L12.764 6.46015L12.7701 6.46531L12.7758 6.47075L12.7813 6.47645L12.7865 6.48239L12.7914 6.48858L12.796 6.495L12.8003 6.50161L12.8043 6.50843L12.8079 6.51544L12.8112 6.5226L12.8142 6.52993L12.8168 6.53741L12.8191 6.54501L12.8211 6.55273L12.8226 6.56055L12.8238 6.56848L12.8247 6.57648L12.8251 6.58455L12.8252 6.59267L12.8249 6.60082L12.8241 6.60901L12.823 6.6172L12.8215 6.62539L12.8195 6.63358L12.8171 6.64173L12.8143 6.64975L12.8112 6.65754L12.8077 6.66508L12.8039 6.67235L12.7997 6.67938L12.7953 6.68614L12.7905 6.69264L12.7855 6.69885L12.7802 6.70477L12.7747 6.71041L12.7689 6.71574L12.7629 6.72079L12.7566 6.72549L12.7502 6.72991L12.7436 6.73398L12.7368 6.73772L12.7298 6.74113L12.7227 6.74419L12.7154 6.74692L12.708 6.74926L12.7005 6.75126L12.6929 6.75288L12.6852 6.75412L12.6774 6.75497L12.6695 6.75545L12.6616 6.75551L12.6537 6.75518L12.6457 6.75442L12.6378 6.75326L12.6298 6.75168L12.6218 6.74966L12.6139 6.7472ZM7.43246 11.2259L7.11167 11.2538L7.10352 11.0085L7.11845 10.7623L7.15519 10.5162L7.21239 10.271L7.28878 10.0275L7.38309 9.78613L7.49416 9.54764L7.6209 9.3126L7.76215 9.08163L7.91686 8.85533L8.08399 8.63429L8.26251 8.41921L8.45136 8.21064L8.64958 8.00932L8.85613 7.81589L9.07005 7.631L9.29032 7.45536L9.51597 7.28966L9.74605 7.13457L9.97956 6.99082L10.2156 6.85913L10.4531 6.74021L10.6913 6.63481L10.9292 6.54368L11.1659 6.46763L11.4005 6.40743L11.6323 6.36397L11.8601 6.33818L12.0834 6.33105L12.3009 6.34366L12.5118 6.3772L12.7145 6.43283L12.6139 6.7472L12.4458 6.70113L12.2675 6.67281L12.0795 6.66195L11.883 6.66828L11.679 6.6914L11.4686 6.73086L11.2531 6.78619L11.0336 6.85675L10.8113 6.94191L10.5874 7.04102L10.3629 7.15335L10.1391 7.27825L9.91711 7.41493L9.69788 7.5627L9.4826 7.72078L9.27235 7.88842L9.06817 8.0649L8.87117 8.24941L8.68237 8.44116L8.50282 8.63941L8.3336 8.84333L8.1757 9.05211L8.03018 9.26497L7.89804 9.48104L7.78024 9.69947L7.67776 9.91945L7.59149 10.1401L7.52233 10.3606L7.4711 10.5801L7.43854 10.7979L7.42542 11.0133L7.43247 11.2259L7.43246 11.2259ZM7.11167 11.2538L7.43246 11.2259L7.43295 11.2343L7.43302 11.2428L7.43269 11.2511L7.43194 11.2594L7.4308 11.2675L7.42928 11.2755L7.42739 11.2834L7.42514 11.2911L7.42253 11.2987L7.41957 11.3061L7.41627 11.3134L7.41266 11.3204L7.40871 11.3273L7.40447 11.3339L7.39993 11.3403L7.39507 11.3465L7.38996 11.3525L7.38457 11.3582L7.37892 11.3636L7.37301 11.3687L7.36686 11.3736L7.36046 11.3781L7.35385 11.3824L7.34701 11.3863L7.33997 11.3899L7.33273 11.3931L7.3253 11.396L7.3177 11.3985L7.30992 11.4007L7.30197 11.4024L7.29389 11.4038L7.28565 11.4047L7.27738 11.4052L7.26918 11.4053L7.26106 11.4049L7.25304 11.4042L7.24513 11.403L7.23734 11.4014L7.22967 11.3995L7.22215 11.3972L7.21476 11.3945L7.20755 11.3914L7.20051 11.388L7.19364 11.3843L7.18698 11.3803L7.18052 11.3759L7.17427 11.3712L7.16825 11.3663L7.16247 11.361L7.15693 11.3555L7.15165 11.3496L7.14665 11.3436L7.14192 11.3372L7.1375 11.3307L7.13336 11.3239L7.12955 11.3169L7.12606 11.3096L7.12291 11.3022L7.1201 11.2945L7.11765 11.2867L7.11558 11.2787L7.11389 11.2706L7.11258 11.2622L7.11167 11.2538H7.11167Z" fill="#26467C"/>
<path fill-rule="evenodd" clip-rule="evenodd" d="M18.1621 21.9329C18.3959 21.1048 19.0642 20.4671 19.8964 20.2969L20.2825 22.843L18.1621 21.9329V21.9329Z" fill="#26467C"/>
<path d="M10.5258 9.53563L10.2677 9.73336L10.2629 9.72641L10.2585 9.71929L10.2545 9.71201L10.2509 9.70462L10.2477 9.6971L10.2449 9.68946L10.2424 9.68175L10.2404 9.67394L10.2387 9.66609L10.2374 9.65819L10.2365 9.65025L10.2359 9.64229L10.2358 9.63433L10.236 9.62638L10.2365 9.61846L10.2375 9.61058L10.2388 9.60275L10.2404 9.595L10.2425 9.58732L10.2448 9.57974L10.2476 9.57228L10.2507 9.56494L10.2541 9.55774L10.2579 9.55072L10.262 9.54384L10.2665 9.53717L10.2714 9.53068L10.2765 9.52441L10.282 9.5184L10.2879 9.51261L10.2941 9.50706L10.3006 9.50181L10.3073 9.49689L10.3143 9.49238L10.3213 9.48828L10.3285 9.48459L10.3359 9.48128L10.3433 9.47838L10.3508 9.47587L10.3584 9.47375L10.366 9.47204L10.3737 9.4707L10.3814 9.46975L10.3892 9.4692L10.3969 9.46903L10.4046 9.46924L10.4124 9.46981L10.42 9.47078L10.4276 9.47211L10.4352 9.47381L10.4426 9.47589L10.45 9.47834L10.4573 9.48114L10.4644 9.48432L10.4714 9.48787L10.4783 9.49177L10.4849 9.49602L10.4914 9.50063L10.4977 9.5056L10.5038 9.51091L10.5097 9.51657L10.5153 9.52259L10.5207 9.52893L10.5258 9.53563H10.5258ZM14.9667 16.2163L10.2677 9.73336L10.5258 9.53563L15.2248 16.0186L14.9667 16.2163ZM14.9667 16.2163L15.2248 16.0186L15.2296 16.0255L15.234 16.0327L15.238 16.0399L15.2416 16.0473L15.2448 16.0549L15.2476 16.0625L15.2501 16.0702L15.2521 16.078L15.2538 16.0859L15.2551 16.0938L15.256 16.1017L15.2566 16.1097L15.2567 16.1176L15.2565 16.1256L15.256 16.1335L15.255 16.1414L15.2537 16.1492L15.2521 16.157L15.2501 16.1646L15.2477 16.1722L15.245 16.1797L15.2419 16.187L15.2384 16.1942L15.2346 16.2012L15.2305 16.2081L15.226 16.2148L15.2212 16.2213L15.216 16.2275L15.2105 16.2336L15.2046 16.2393L15.1985 16.2449L15.1919 16.2501L15.1852 16.2551L15.1783 16.2596L15.1712 16.2637L15.164 16.2674L15.1567 16.2707L15.1492 16.2736L15.1417 16.2761L15.1341 16.2782L15.1265 16.2799L15.1188 16.2812L15.1111 16.2822L15.1033 16.2828L15.0956 16.2829L15.0879 16.2827L15.0802 16.2821L15.0725 16.2812L15.0649 16.2798L15.0573 16.2781L15.0499 16.2761L15.0425 16.2736L15.0352 16.2708L15.0281 16.2676L15.0211 16.2641L15.0143 16.2602L15.0076 16.2559L15.0011 16.2513L14.9948 16.2464L14.9887 16.241L14.9828 16.2354L14.9772 16.2294L14.9718 16.223L14.9667 16.2163ZM13.8462 8.5421L13.9468 8.22773L13.9546 8.23059L13.9622 8.23383L13.9695 8.23741L13.9766 8.24135L13.9834 8.2456L13.99 8.25017L13.9963 8.25505L14.0024 8.26021L14.0081 8.26565L14.0136 8.27135L14.0188 8.27729L14.0237 8.28348L14.0283 8.2899L14.0326 8.29651L14.0366 8.30333L14.0402 8.31034L14.0435 8.3175L14.0465 8.32483L14.0491 8.33231L14.0514 8.33991L14.0534 8.34763L14.0549 8.35545L14.0562 8.36338L14.057 8.37138L14.0574 8.37945L14.0575 8.38757L14.0572 8.39572L14.0564 8.40391L14.0553 8.4121L14.0538 8.42029L14.0518 8.42848L14.0494 8.43663L14.0466 8.44465L14.0435 8.45244L14.04 8.45998L14.0362 8.46725L14.032 8.47428L14.0276 8.48104L14.0229 8.48754L14.0178 8.49375L14.0125 8.49967L14.007 8.50531L14.0012 8.51064L13.9952 8.51569L13.9889 8.52039L13.9825 8.52481L13.9759 8.52888L13.9691 8.53262L13.9621 8.53603L13.955 8.53909L13.9477 8.54182L13.9403 8.54416L13.9328 8.54616L13.9252 8.54778L13.9175 8.54902L13.9097 8.54987L13.9018 8.55035L13.8939 8.55041L13.886 8.55008L13.878 8.54932L13.8701 8.54816L13.8621 8.54658L13.8541 8.54456L13.8462 8.5421V8.5421ZM8.6649 13.0213L8.34411 13.0492L8.33594 12.8039L8.35087 12.5576L8.38759 12.3115L8.44477 12.0663L8.52115 11.8227L8.61543 11.5813L8.72651 11.3428L8.85322 11.1077L8.99446 10.8768L9.14917 10.6504L9.31628 10.4294L9.49476 10.2143L9.68362 10.0057L9.88182 9.80438L10.0884 9.61091L10.3023 9.42602L10.5225 9.25036L10.7482 9.08464L10.9783 8.92957L11.2118 8.78581L11.4478 8.65411L11.6853 8.53517L11.9235 8.42977L12.1614 8.33866L12.3981 8.26257L12.6328 8.20239L12.8645 8.15891L13.0924 8.13312L13.3156 8.12598L13.5332 8.13858L13.7441 8.17212L13.9468 8.22774L13.8462 8.54211L13.6781 8.49605L13.4997 8.46773L13.3118 8.45688L13.1153 8.46322L12.9112 8.48634L12.7008 8.52582L12.4853 8.58113L12.2658 8.65169L12.0435 8.73687L11.8196 8.83598L11.5952 8.94833L11.3714 9.07321L11.1493 9.20992L10.9301 9.35768L10.7148 9.51578L10.5046 9.68344L10.3004 9.85991L10.1034 10.0444L9.91463 10.2362L9.73511 10.4345L9.5659 10.6384L9.40802 10.8472L9.2625 11.0601L9.13037 11.2761L9.01259 11.4946L8.91011 11.7146L8.82386 11.9353L8.75471 12.1558L8.7035 12.3754L8.67097 12.5932L8.65785 12.8086L8.66491 13.0213H8.6649ZM8.34411 13.0492L8.6649 13.0213L8.66539 13.0298L8.66546 13.0382L8.66513 13.0465L8.66439 13.0548L8.66324 13.0629L8.66172 13.0709L8.65983 13.0788L8.65759 13.0865L8.65497 13.0941L8.65201 13.1015L8.64871 13.1088L8.6451 13.1158L8.64115 13.1227L8.63691 13.1293L8.63237 13.1357L8.62751 13.1419L8.6224 13.1479L8.61701 13.1536L8.61136 13.159L8.60545 13.1641L8.5993 13.169L8.5929 13.1736L8.58629 13.1778L8.57945 13.1817L8.57241 13.1853L8.56517 13.1885L8.55774 13.1914L8.55014 13.194L8.54236 13.1961L8.53441 13.1978L8.52633 13.1992L8.51809 13.2001L8.50982 13.2006L8.50162 13.2007L8.4935 13.2003L8.48548 13.1996L8.47757 13.1984L8.46978 13.1968L8.46211 13.1949L8.45459 13.1926L8.4472 13.1899L8.43999 13.1868L8.43295 13.1835L8.42608 13.1797L8.41943 13.1757L8.41296 13.1713L8.40671 13.1667L8.40069 13.1617L8.39491 13.1564L8.38937 13.1509L8.38409 13.1451L8.37909 13.139L8.37436 13.1327L8.36994 13.1261L8.3658 13.1193L8.36199 13.1123L8.3585 13.105L8.35535 13.0976L8.35254 13.0899L8.35009 13.0821L8.34802 13.0741L8.34633 13.066L8.34502 13.0577L8.34411 13.0492Z" fill="#26467C"/>
<path d="M7.00881 10.3264L6.49414 10.7243L6.48452 10.7105L6.47568 10.6963L6.46762 10.6818L6.46036 10.667L6.45387 10.652L6.44815 10.6367L6.4432 10.6213L6.43901 10.6058L6.43561 10.5901L6.43294 10.5743L6.43103 10.5584L6.42988 10.5425L6.42945 10.5266L6.42979 10.5107L6.43084 10.4948L6.43264 10.479L6.43518 10.4633L6.43842 10.4478L6.44241 10.4325L6.44709 10.4173L6.4525 10.4023L6.45862 10.3876L6.46544 10.3732L6.47296 10.3591L6.48118 10.3453L6.4901 10.3319L6.49969 10.3189L6.50998 10.3063L6.52095 10.2942L6.5326 10.2826L6.54492 10.2714L6.55791 10.2609L6.5714 10.251L6.58522 10.2419L6.59932 10.2336L6.6137 10.2261L6.62832 10.2195L6.64314 10.2136L6.65813 10.2085L6.67328 10.2042L6.68855 10.2007L6.70393 10.1979L6.71936 10.196L6.73485 10.1948L6.75032 10.1944L6.76579 10.1947L6.78123 10.1958L6.79657 10.1976L6.81182 10.2003L6.82692 10.2036L6.84187 10.2077L6.85664 10.2125L6.87118 10.2181L6.88549 10.2243L6.89951 10.2314L6.91324 10.2391L6.92664 10.2475L6.93968 10.2567L6.95234 10.2666L6.96458 10.2771L6.97637 10.2884L6.98769 10.3004L6.99851 10.3131L7.00881 10.3264V10.3264ZM13.4354 20.211L6.49413 10.7243L7.00881 10.3264L13.9501 19.8131L13.5687 20.3175L13.4354 20.211L13.4354 20.211ZM13.4354 20.211L13.9501 19.8131L13.9597 19.827L13.9686 19.8412L13.9766 19.8557L13.9839 19.8704L13.9904 19.8855L13.9961 19.9007L14.001 19.9161L14.0052 19.9317L14.0086 19.9474L14.0113 19.9632L14.0132 19.9791L14.0144 19.995L14.0148 20.0109L14.0145 20.0268L14.0134 20.0427L14.0116 20.0584L14.0091 20.0741L14.0058 20.0896L14.0018 20.105L13.9972 20.1202L13.9917 20.1351L13.9856 20.1498L13.9788 20.1642L13.9713 20.1784L13.9631 20.1921L13.9542 20.2055L13.9446 20.2185L13.9343 20.2311L13.9233 20.2432L13.9116 20.2549L13.8993 20.266L13.8863 20.2766L13.8728 20.2865L13.859 20.2956L13.8449 20.3038L13.8305 20.3113L13.8159 20.318L13.8011 20.3239L13.7861 20.3289L13.771 20.3333L13.7557 20.3368L13.7403 20.3395L13.7249 20.3415L13.7094 20.3426L13.6939 20.3431L13.6785 20.3427L13.663 20.3417L13.6477 20.3398L13.6324 20.3372L13.6173 20.3339L13.6024 20.3298L13.5876 20.325L13.5731 20.3194L13.5588 20.3131L13.5447 20.3061L13.531 20.2984L13.5176 20.2899L13.5046 20.2807L13.4919 20.2709L13.4797 20.2603L13.4679 20.249L13.4566 20.2371L13.4457 20.2244L13.4354 20.211ZM20.1608 23.148L13.5687 20.3175L13.8169 19.7066L20.4091 22.5371L20.6031 22.7916L20.1608 23.148ZM20.1608 23.148L20.4091 22.5371L20.4242 22.5441L20.4388 22.5518L20.4529 22.5601L20.4664 22.5691L20.4794 22.5786L20.4918 22.5888L20.5037 22.5995L20.5149 22.6108L20.5256 22.6226L20.5357 22.6348L20.5451 22.6475L20.554 22.6606L20.5622 22.6742L20.5697 22.688L20.5766 22.7023L20.5828 22.7168L20.5883 22.7317L20.5931 22.7467L20.5973 22.7621L20.6007 22.7776L20.6034 22.7933L20.6054 22.8092L20.6066 22.8252L20.607 22.8413L20.6067 22.8574L20.6056 22.8736L20.6037 22.8898L20.601 22.906L20.5975 22.9222L20.5932 22.9383L20.5881 22.9543L20.5821 22.9702L20.5753 22.9857L20.5678 23.0007L20.5597 23.0152L20.551 23.0291L20.5417 23.0425L20.5318 23.0552L20.5214 23.0674L20.5104 23.079L20.4989 23.09L20.487 23.1003L20.4747 23.1101L20.4619 23.1191L20.4488 23.1276L20.4353 23.1353L20.4214 23.1424L20.4073 23.1488L20.3928 23.1544L20.3782 23.1594L20.3632 23.1637L20.3481 23.1672L20.3328 23.1699L20.3174 23.1719L20.3019 23.1732L20.2862 23.1737L20.2705 23.1733L20.2547 23.1722L20.239 23.1703L20.2232 23.1675L20.2075 23.1639L20.1918 23.1595L20.1763 23.1542L20.1608 23.148V23.148ZM19.4784 15.377L20.6031 22.7916L19.9668 22.8936L18.8421 15.479L19.4172 15.2285L19.4784 15.377V15.377ZM19.4784 15.377L18.8421 15.479L18.84 15.4621L18.8387 15.4453L18.8382 15.4286L18.8386 15.412L18.8397 15.3956L18.8416 15.3794L18.8444 15.3634L18.8478 15.3477L18.852 15.3322L18.8569 15.3169L18.8624 15.302L18.8687 15.2874L18.8756 15.2732L18.8832 15.2593L18.8914 15.2458L18.9002 15.2328L18.9096 15.2202L18.9196 15.208L18.9302 15.1964L18.9413 15.1853L18.9529 15.1747L18.965 15.1647L18.9776 15.1553L18.9907 15.1465L19.0043 15.1383L19.0183 15.1308L19.0327 15.124L19.0475 15.1178L19.0628 15.1124L19.0784 15.1078L19.0944 15.104L19.1107 15.1009L19.1271 15.0987L19.1434 15.0974L19.1597 15.0969L19.1758 15.0973L19.1917 15.0985L19.2075 15.1005L19.223 15.1032L19.2384 15.1068L19.2535 15.1111L19.2683 15.1161L19.2828 15.1218L19.297 15.1283L19.3109 15.1354L19.3244 15.1432L19.3375 15.1516L19.3502 15.1607L19.3624 15.1703L19.3742 15.1806L19.3855 15.1914L19.3964 15.2029L19.4066 15.2148L19.4164 15.2273L19.4255 15.2402L19.4341 15.2537L19.4421 15.2676L19.4494 15.282L19.456 15.2969L19.462 15.3121L19.4672 15.3278L19.4717 15.3438L19.4755 15.3602L19.4784 15.377ZM12.4762 5.78191L19.4172 15.2285L18.9033 15.6275L11.9623 6.18091L11.9499 6.16286L12.4762 5.78191V5.78191ZM12.4762 5.78191L11.9623 6.18091L11.9526 6.16707L11.9438 6.15288L11.9357 6.13838L11.9284 6.12362L11.9219 6.10862L11.9161 6.0934L11.9112 6.07799L11.9069 6.06243L11.9035 6.04674L11.9008 6.03093L11.8988 6.01506L11.8977 5.99916L11.8972 5.98326L11.8975 5.96735L11.8986 5.95149L11.9003 5.93572L11.9028 5.92004L11.906 5.9045L11.91 5.88911L11.9146 5.87393L11.92 5.85897L11.9261 5.84426L11.9329 5.82982L11.9404 5.81569L11.9486 5.8019L11.9575 5.78848L11.9671 5.77545L11.9773 5.76286L11.9883 5.75071L11.9999 5.73905L12.0122 5.72789L12.0252 5.71728L12.0386 5.70736L12.0524 5.69826L12.0665 5.68995L12.0809 5.68245L12.0955 5.67575L12.1103 5.66984L12.1253 5.66472L12.1404 5.66039L12.1557 5.65683L12.1711 5.65407L12.1865 5.65207L12.202 5.65085L12.2174 5.6504L12.2329 5.6507L12.2483 5.65177L12.2637 5.65358L12.2789 5.65615L12.2941 5.65946L12.309 5.66352L12.3238 5.6683L12.3384 5.67384L12.3527 5.68009L12.3667 5.68708L12.3805 5.69477L12.3939 5.70319L12.4069 5.71233L12.4196 5.72218L12.4318 5.73273L12.4437 5.74399L12.455 5.75593L12.4659 5.76857L12.4762 5.78191H12.4762ZM7.03193 10.3627L6.47101 10.688L6.33333 10.3899L6.24037 10.0822L6.19066 9.76916L6.18164 9.45434L6.21012 9.14052L6.27282 8.82974L6.36655 8.52348L6.48841 8.22285L6.63575 7.92874L6.80617 7.64207L6.99743 7.36374L7.20741 7.09477L7.4341 6.83619L7.67554 6.58909L7.92979 6.35468L8.19498 6.13415L8.46925 5.92876L8.75084 5.73983L9.03797 5.5687L9.32896 5.41676L9.6222 5.28546L9.91611 5.1764L10.2093 5.09123L10.5003 5.0319L10.7879 5.00061L11.0706 5L11.3464 5.03314L11.6128 5.10346L11.8657 5.21417L12.0997 5.36739L12.3092 5.56341L12.4886 5.79998L11.9499 6.16287L11.8359 6.01232L11.7082 5.89305L11.5658 5.80005L11.4068 5.73067L11.2298 5.6842L11.0349 5.661L10.8235 5.66161L10.5977 5.68631L10.3602 5.73482L10.1136 5.80651L9.86058 5.90044L9.60376 6.01548L9.34561 6.15028L9.08861 6.30347L8.83507 6.47362L8.58726 6.65916L8.34745 6.85859L8.11785 7.07026L7.90061 7.29256L7.69789 7.5238L7.5117 7.76225L7.34408 8.00607L7.197 8.2534L7.07223 8.50233L6.97138 8.75085L6.89592 8.99704L6.84693 9.23918L6.82531 9.47583L6.83177 9.7062L6.86718 9.93023L6.93305 10.1486L7.03193 10.3627L7.03193 10.3627ZM6.47101 10.688L7.03193 10.3627L7.03971 10.3778L7.04666 10.3931L7.0528 10.4085L7.05811 10.4241L7.06263 10.4399L7.06636 10.4558L7.0693 10.4717L7.07147 10.4877L7.07286 10.5038L7.07349 10.5198L7.07336 10.5358L7.07247 10.5517L7.07086 10.5675L7.06851 10.5833L7.06543 10.5988L7.06165 10.6142L7.05715 10.6294L7.05194 10.6444L7.04605 10.6591L7.03946 10.6735L7.03219 10.6876L7.02426 10.7014L7.01567 10.7147L7.0064 10.7277L6.99651 10.7403L6.98596 10.7524L6.97479 10.764L6.96299 10.775L6.95058 10.7856L6.93753 10.7956L6.92391 10.8049L6.90968 10.8137L6.89505 10.8217L6.88019 10.8288L6.86516 10.8351L6.84995 10.8406L6.83461 10.8452L6.81917 10.8491L6.80367 10.8521L6.78808 10.8543L6.7725 10.8557L6.7569 10.8564L6.74136 10.8563L6.72587 10.8553L6.71045 10.8537L6.69517 10.8513L6.68001 10.8481L6.66502 10.8442L6.65025 10.8396L6.63569 10.8342L6.62139 10.8282L6.60736 10.8214L6.59365 10.8139L6.58027 10.8058L6.56725 10.7969L6.55463 10.7874L6.54242 10.7773L6.53065 10.7664L6.51937 10.7549L6.50859 10.7428L6.49834 10.73L6.48863 10.7166L6.47952 10.7026L6.47101 10.688H6.47101ZM6.47101 10.688L7.03193 10.3627L7.03971 10.3778L7.04666 10.3931L7.0528 10.4085L7.05811 10.4241L7.06263 10.4399L7.06636 10.4558L7.0693 10.4717L7.07147 10.4877L7.07286 10.5038L7.07349 10.5198L7.07336 10.5358L7.07247 10.5517L7.07086 10.5675L7.06851 10.5833L7.06543 10.5988L7.06165 10.6142L7.05715 10.6294L7.05194 10.6444L7.04605 10.6591L7.03946 10.6735L7.03219 10.6876L7.02426 10.7014L7.01567 10.7147L7.0064 10.7277L6.99651 10.7403L6.98596 10.7524L6.97479 10.764L6.96299 10.775L6.95058 10.7856L6.93753 10.7956L6.92391 10.8049L6.90968 10.8137L6.89505 10.8217L6.88019 10.8288L6.86516 10.8351L6.84995 10.8406L6.83461 10.8452L6.81917 10.8491L6.80367 10.8521L6.78808 10.8543L6.7725 10.8557L6.7569 10.8564L6.74136 10.8563L6.72587 10.8553L6.71045 10.8537L6.69517 10.8513L6.68001 10.8481L6.66502 10.8442L6.65025 10.8396L6.63569 10.8342L6.62139 10.8282L6.60736 10.8214L6.59365 10.8139L6.58027 10.8058L6.56725 10.7969L6.55463 10.7874L6.54242 10.7773L6.53065 10.7664L6.51937 10.7549L6.50859 10.7428L6.49834 10.73L6.48863 10.7166L6.47952 10.7026L6.47101 10.688H6.47101Z" fill="#26467C"/>
</svg>
