<svg width="35" height="35" viewBox="0 0 35 35" fill="none" xmlns="http://www.w3.org/2000/svg">
<path fill-rule="evenodd" clip-rule="evenodd" d="M27.1915 35H6.85745C3.07024 35 0 31.844 0 27.95V7.049C0 3.155 3.07024 0 6.85745 0H27.1915C30.9787 0 34.0489 3.155 34.0489 7.049V27.95C34.0489 31.844 30.9787 35 27.1915 35Z" fill="#4C9AE8"/>
<path d="M13.5956 13.7732C14.6094 13.7732 15.4313 12.9283 15.4313 11.8861C15.4313 10.8439 14.6094 9.99902 13.5956 9.99902C12.5817 9.99902 11.7598 10.8439 11.7598 11.8861C11.7598 12.9283 12.5817 13.7732 13.5956 13.7732Z" fill="white"/>
<path d="M22.162 13.7732C23.1758 13.7732 23.9977 12.9283 23.9977 11.8861C23.9977 10.8439 23.1758 9.99902 22.162 9.99902C21.1481 9.99902 20.3262 10.8439 20.3262 11.8861C20.3262 12.9283 21.1481 13.7732 22.162 13.7732Z" fill="white"/>
<path d="M7.91425 24.3446C7.71709 24.3443 7.52358 24.2898 7.35379 24.1868C7.18401 24.0837 7.04414 23.9359 6.94869 23.7585C6.85323 23.5812 6.80567 23.3808 6.81094 23.1782C6.81621 22.9756 6.87411 22.7782 6.97864 22.6063L9.75257 18.0461C9.90843 17.7917 10.156 17.6112 10.4411 17.5442C10.7262 17.4772 11.0255 17.5291 11.2734 17.6885C11.5214 17.8479 11.6977 18.1019 11.7638 18.3948C11.8298 18.6876 11.7803 18.9954 11.6259 19.2508L8.85202 23.811C8.7527 23.9745 8.61448 24.1093 8.4504 24.2027C8.28632 24.296 8.10179 24.3449 7.91425 24.3446Z" fill="white"/>
<path d="M17.8687 25.1308C16.1879 25.1357 14.5284 24.7441 13.018 23.9862C11.5076 23.2283 10.1864 22.1243 9.15625 20.7592L10.898 19.3604C11.7244 20.4496 12.7815 21.3308 13.989 21.937C15.1965 22.5433 16.5225 22.8586 17.8663 22.859C19.2101 22.8595 20.5363 22.545 21.7441 21.9395C22.9519 21.334 24.0096 20.4535 24.8367 19.3648L26.5773 20.7636C25.5471 22.1274 24.2263 23.2302 22.7166 23.9873C21.2069 24.7444 19.5484 25.1356 17.8687 25.1308Z" fill="white"/>
<path d="M27.8332 24.3446C27.6456 24.3449 27.4611 24.2961 27.297 24.2027C27.1329 24.1093 26.9947 23.9745 26.8954 23.811L24.1215 19.2508C23.9671 18.9954 23.9176 18.6876 23.9837 18.3948C24.0497 18.1019 24.2261 17.8479 24.474 17.6885C24.7219 17.5291 25.0212 17.4772 25.3063 17.5442C25.5914 17.6112 25.839 17.7917 25.9949 18.0461L28.7688 22.6063C28.8733 22.7782 28.9312 22.9757 28.9365 23.1783C28.9418 23.3809 28.8942 23.5812 28.7988 23.7586C28.7033 23.9359 28.5634 24.0838 28.3937 24.1868C28.2239 24.2898 28.0304 24.3443 27.8332 24.3446H27.8332Z" fill="white"/>
</svg>
