<svg width="35" height="35" viewBox="0 0 35 35" fill="none" xmlns="http://www.w3.org/2000/svg">
<path fill-rule="evenodd" clip-rule="evenodd" d="M27.1746 35H6.85319C3.06833 35 0 31.844 0 27.95V7.049C0 3.155 3.06833 0 6.85319 0H27.1746C30.9594 0 34.0278 3.155 34.0278 7.049V27.95C34.0278 31.844 30.9594 35 27.1746 35Z" fill="#EE820A"/>
<path fill-rule="evenodd" clip-rule="evenodd" d="M17.327 15.4492C18.3964 15.4492 19.2714 14.5502 19.2714 13.4492C19.2714 12.3492 18.3964 11.4492 17.327 11.4492C16.2575 11.4492 15.3825 12.3492 15.3825 13.4492C15.3825 14.6492 16.1603 15.4492 17.327 15.4492ZM21.702 19.2502C21.2159 19.7502 20.6325 20.1492 20.0492 20.3492C19.4659 20.6492 18.7853 20.7502 18.1047 20.8492C18.202 20.9492 18.2992 21.0502 18.2992 21.1492L20.9242 23.8492C21.2159 24.1492 21.3131 24.5502 21.1186 24.9492C20.9242 25.3492 20.5353 25.5502 20.1464 25.5502C19.8547 25.5502 19.6603 25.3492 19.5631 25.1492L17.5214 23.0502C17.327 22.8492 17.2297 22.8492 17.0353 23.0502C16.3547 23.7502 15.6742 24.5502 14.9936 25.1492C14.6047 25.4492 14.3131 25.5502 13.9242 25.3492C13.5353 25.1492 13.3409 24.7502 13.3409 24.3492C13.3409 24.0502 13.5353 23.8492 13.7297 23.7502C14.6047 22.8492 15.4797 21.9492 16.3547 21.0502C16.452 20.9492 16.452 20.9492 16.5492 20.8492C15.2853 20.7502 14.2159 20.3492 13.3409 19.6492C13.2436 19.5502 13.0492 19.4492 12.952 19.3492C12.4659 18.9492 12.4659 18.5502 12.8547 17.9492C13.1464 17.5502 13.5353 17.4492 14.1186 17.6492C14.2159 17.6492 14.3131 17.7502 14.4103 17.8492C16.1603 19.0502 18.4936 19.1492 20.2436 17.9492C20.4381 17.8492 20.6325 17.6492 20.7297 17.6492C21.2159 17.5502 21.5075 17.7502 21.7992 18.1492C22.0909 18.3492 22.0909 18.8492 21.702 19.2502ZM17.3269 9.44922C19.563 9.44922 21.2158 11.2502 21.2158 13.5502C21.2158 15.7502 19.4658 17.5502 17.2297 17.5502C15.0908 17.5502 13.3408 15.7502 13.3408 13.5502C13.3408 11.2502 15.0908 9.44922 17.3269 9.44922Z" fill="white"/>
</svg>
