<svg width="35" height="36" viewBox="0 0 35 36" fill="none" xmlns="http://www.w3.org/2000/svg">
<path fill-rule="evenodd" clip-rule="evenodd" d="M27.1746 35.0449H6.85319C3.06736 35.0449 0 31.8889 0 27.9949V7.09392C0 3.19992 3.06736 0.0449219 6.85319 0.0449219H27.1746C30.9594 0.0449219 34.0278 3.19992 34.0278 7.09392V27.9949C34.0278 31.8889 30.9594 35.0449 27.1746 35.0449Z" fill="#00B0F5"/>
<path fill-rule="evenodd" clip-rule="evenodd" d="M27.0915 12.0951C26.4109 12.3951 25.7313 12.5951 25.147 12.6951C25.9248 12.2951 26.4109 11.5951 26.6054 10.7951C25.9248 11.1951 25.2452 11.4941 24.3693 11.5951C23.6887 10.8951 22.8147 10.4941 21.8425 10.4941C19.9943 10.4941 18.3415 12.0951 18.3415 14.0951C18.3415 14.3951 18.3415 14.6951 18.4397 14.8951C15.523 14.6951 12.9943 13.3951 11.3415 11.1951C11.0498 11.6951 10.8554 12.2951 10.8554 12.9941C10.8554 14.1951 11.4387 15.2951 12.4109 15.9941C11.8276 15.9941 11.3415 15.7951 10.8554 15.5951C10.8554 17.2951 12.022 18.6951 13.5786 19.0951C13.2859 19.1951 12.9943 19.1951 12.7026 19.1951C12.4109 19.1951 12.3137 19.1951 12.022 19.0951C12.4109 20.4941 13.772 21.5951 15.2304 21.5951C14.0647 22.4941 12.6063 23.0951 10.9526 23.0951C10.6619 23.0951 10.3693 23.0951 10.1758 22.9941C11.7304 23.9941 13.4804 24.5951 15.4248 24.5951C21.7443 24.5951 25.2452 19.1951 25.2452 14.4941V14.0951C26.022 13.3951 26.5081 12.8951 27.0915 12.0951Z" fill="white"/>
</svg>
