<svg width="35" height="35" viewBox="0 0 35 35" fill="none" xmlns="http://www.w3.org/2000/svg">
<path fill-rule="evenodd" clip-rule="evenodd" d="M27.1746 35H6.85319C3.06833 35 0 31.844 0 27.95V7.049C0 3.155 3.06833 0 6.85319 0H27.1746C30.9594 0 34.0278 3.155 34.0278 7.049V27.95C34.0278 31.844 30.9594 35 27.1746 35Z" fill="#4B76A8"/>
<path fill-rule="evenodd" clip-rule="evenodd" d="M26.8338 12.149C26.931 11.649 26.8338 11.349 26.1532 11.349H23.9171C23.3338 11.349 23.1393 11.649 22.9449 11.949C22.9449 11.949 21.7782 14.75 20.2227 16.649C19.7365 17.149 19.4449 17.349 19.1532 17.349C19.056 17.349 18.7643 17.149 18.7643 16.649V12.149C18.7643 11.549 18.5699 11.349 18.181 11.349H14.681C14.2921 11.349 14.0977 11.649 14.0977 11.849C14.0977 12.349 14.8754 12.549 14.9727 14.049V17.349C14.9727 18.049 14.8754 18.25 14.5838 18.25C13.806 18.25 12.056 15.449 10.8893 12.149C10.6949 11.549 10.5004 11.25 9.9171 11.25H7.87543C7.2921 11.25 7.09766 11.549 7.09766 11.849C7.09766 12.449 7.87543 15.449 10.5977 19.349C12.4449 22.049 14.9727 23.549 17.306 23.549C18.6671 23.549 18.8615 23.25 18.8615 22.649V20.649C18.8615 20.049 18.9588 19.849 19.4449 19.849C19.7365 19.849 20.3199 20.049 21.681 21.349C23.1393 22.849 23.5282 23.75 24.4032 23.75H26.6393C27.2227 23.75 27.6115 23.449 27.4171 22.75C27.2227 22.149 26.3477 21.049 25.3754 19.949C24.8893 19.349 24.1115 18.649 23.8199 18.349C23.5282 17.949 23.6254 17.75 23.8199 17.349C23.9171 17.449 26.6393 13.549 26.8338 12.149Z" fill="white"/>
</svg>
