<svg width="20" height="18" viewBox="0 0 20 18" fill="none" xmlns="http://www.w3.org/2000/svg">
<g clip-path="url(#clip0_199_3774)">
<path d="M6.43921 11.9999H6.43829C6.11615 12.0007 5.85438 12.2694 5.85438 12.5998C5.85438 12.9305 6.11707 13.1997 6.43982 13.1997H17.0558C17.3791 13.1997 17.6412 13.4683 17.6412 13.7997C17.6412 14.1311 17.3791 14.3997 17.0558 14.3997H6.43982C5.47141 14.3997 4.6835 13.5922 4.6835 12.5998C4.6835 11.8612 5.11999 11.2254 5.74217 10.9482L3.6285 1.19998H0.585438C0.262075 1.19998 0 0.931388 0 0.599988C0 0.268588 0.262075 0 0.585438 0H4.09807C4.37249 0 4.61002 0.195309 4.66963 0.469834L5.08813 2.39995H19.3975C19.5812 2.39995 19.7543 2.48839 19.865 2.6387C19.9755 2.78901 20.0109 2.98369 19.9604 3.16478L17.6186 11.5646C17.5468 11.8221 17.3171 11.9998 17.0558 11.9998H6.4415L6.43921 11.9999Z" fill="#F2691C"/>
<path d="M5.85352 16.2004C5.85352 17.1928 6.64142 18.0003 7.60984 18.0003C8.57826 18.0003 9.36617 17.1928 9.36617 16.2004C9.36617 15.2079 8.57826 14.4004 7.60984 14.4004C6.64142 14.4004 5.85352 15.2079 5.85352 16.2004Z" fill="#F2691C"/>
<path d="M14.127 16.2004C14.127 17.1928 14.9148 18.0003 15.8832 18.0003C16.8516 18.0003 17.6395 17.1928 17.6395 16.2004C17.6395 15.2079 16.8516 14.4004 15.8832 14.4004C14.9148 14.4004 14.127 15.2079 14.127 16.2004Z" fill="#F2691C"/>
</g>
<defs>
<clipPath id="clip0_199_3774">
<rect width="20" height="18.0003" fill="white"/>
</clipPath>
</defs>
</svg>
