<svg width="20" height="20" viewBox="0 0 20 20" fill="none" xmlns="http://www.w3.org/2000/svg">
<path d="M10 1C5.0371 1 1 5.0371 1 10C1 14.9629 5.0371 19 10 19C14.9629 19 19 14.9629 19 10C19 5.0371 14.9629 1 10 1ZM9.62499 16C9.00462 16 8.49999 15.4954 8.49999 14.875C8.49999 14.2546 9.00462 13.75 9.62499 13.75C10.2454 13.75 10.75 14.2546 10.75 14.875C10.75 15.4954 10.2454 16 9.62499 16ZM10.75 11.4253V12.625C10.75 12.8323 10.5823 13 10.375 13H8.875C8.66772 13 8.49999 12.8323 8.49999 12.625V10.75C8.49999 9.92311 9.17309 9.25001 10 9.25001C10.8269 9.25001 11.5 8.57691 11.5 7.75C11.5 6.92309 10.8269 6.24999 10 6.24999C9.17309 6.24999 8.49999 6.92309 8.49999 7.75V8.12501C8.49999 8.33229 8.33226 8.50002 8.12498 8.50002H6.625C6.41772 8.50002 6.24999 8.33229 6.24999 8.12501V7.75C6.24999 5.68236 7.93236 3.99999 10 3.99999C12.0676 3.99999 13.75 5.68239 13.75 7.75C13.75 9.54958 12.4822 11.0745 10.75 11.4253Z" fill="#F2691C"/>
</svg>
